<?xml version="1.0" encoding="UTF-8"?>
<svg version="1.1" xmlns="http://www.w3.org/2000/svg" width="512" height="512">
<path d="M0 0 C5.52209505 1.58950812 9.22705143 6.78178801 13.03538132 10.86598206 C14.0859968 11.9614485 15.13862879 13.05498403 16.19311142 14.14672852 C18.45899264 16.49881129 20.71264218 18.86179911 22.95821381 21.23327637 C26.52317682 24.99299373 30.12877253 28.71194419 33.74354172 32.42372131 C44.01695835 42.98252491 54.26053816 53.5683972 64.40403366 64.25221252 C70.00896756 70.1550136 75.66056402 76.00882415 81.36672652 81.81387091 C84.37879261 84.88230695 87.3623464 87.96970343 90.28911591 91.11978149 C105.47331186 107.93563165 105.47331186 107.93563165 126.35032272 114.71168518 C142.89044752 113.91852625 153.63590869 100.56497038 164.13724184 89.26239967 C167.1030353 86.10198795 170.14828694 83.02004916 173.18635178 79.92933655 C178.91266693 74.08167754 184.57274551 68.17444028 190.20795095 62.23906088 C200.32022063 51.59292995 210.54822518 41.05826515 220.79238546 30.53918695 C224.38026943 26.85004973 227.94024012 23.1365139 231.47854829 19.39981842 C233.67727906 17.08400047 235.89204136 14.78397062 238.11052895 12.48708916 C239.13374531 11.42019151 240.14978859 10.34636008 241.15792274 9.26519966 C248.74298935 1.139192 248.74298935 1.139192 252.70064545 0 C255.96752695 -0.08762319 258.0870215 0.51196567 260.85032272 2.23902893 C263.03103935 5.78269345 263.10363995 7.56752587 262.35032272 11.67652893 C257.79919875 18.06387285 251.65099106 23.51323962 246.11033249 29.03004456 C245.21198181 29.92854126 244.31363113 30.82703796 243.38805771 31.75276184 C240.94863408 34.19246988 238.50616146 36.62910385 236.06308866 39.06515694 C233.50150225 41.62045002 230.9427878 44.17861576 228.38375473 46.73646545 C223.54817432 51.56895006 218.71005275 56.39888206 213.87099069 61.22788 C208.35745472 66.7302002 202.84679158 72.23539381 197.33635628 77.74081898 C186.01085004 89.05590051 174.68177924 100.3674061 163.35032272 111.67652893 C164.3840023 111.67799549 165.41768188 111.67946205 166.48268509 111.68097305 C191.63800919 111.7175731 216.7932002 111.77702941 241.94841385 111.86043167 C254.1133102 111.90023568 266.27814172 111.9326213 278.44309616 111.94752502 C289.04645765 111.96053442 299.6496766 111.98748105 310.25295782 112.031142 C315.86698258 112.05377263 321.48083143 112.06943864 327.09490585 112.06841278 C332.3808904 112.06766713 337.66648582 112.08558018 342.95236969 112.11769676 C344.89051031 112.12620346 346.82869453 112.12794047 348.7668457 112.12233162 C351.41821186 112.11568183 354.0683435 112.13363534 356.71958542 112.157547 C357.48225424 112.14978658 358.24492307 112.14202616 359.03070307 112.13403058 C365.53635718 112.23752796 370.68927493 114.34463514 375.59251022 118.64137268 C376.40075241 119.61783752 376.40075241 119.61783752 377.22532272 120.61402893 C377.7796196 121.26242737 378.33391647 121.91082581 378.90501022 122.57887268 C381.79640517 126.77530264 382.60052961 130.4310205 382.60759163 135.48562336 C382.61404052 136.65409913 382.62048941 137.82257491 382.62713373 139.02645904 C382.62403652 140.3060146 382.62093932 141.58557017 382.61774826 142.90390015 C382.62148525 144.28019974 382.62608697 145.65649721 382.63147891 147.03279132 C382.64371834 150.81419966 382.64344733 154.59551959 382.64109015 158.37694323 C382.64068223 162.45545163 382.65171885 166.53393159 382.66120529 170.61242676 C382.67782147 178.60283347 382.68331512 186.59321068 382.68443005 194.58363322 C382.68538024 201.07849217 382.68948907 207.57334138 382.6958313 214.06819725 C382.71344545 232.48087063 382.72266991 250.8935207 382.72117035 269.30620257 C382.72105048 270.79529415 382.72105048 270.79529415 382.72092819 272.31446838 C382.72084643 273.30840773 382.72076467 274.30234707 382.72068043 275.32640579 C382.7198675 291.4353075 382.73900658 307.54411571 382.76720493 323.65299038 C382.79592795 340.19205547 382.80974554 356.73107495 382.80801737 373.27016562 C382.80735327 382.55617609 382.81285458 391.84208854 382.83437347 401.12807655 C382.85257762 409.03435928 382.85693894 416.94049957 382.84335463 424.84679417 C382.83682106 428.88022546 382.83672162 432.91338343 382.85406113 436.94678879 C382.86978002 440.6412363 382.86694075 444.33519349 382.84949286 448.02962895 C382.84496785 449.99489012 382.86008963 451.96016641 382.87597215 453.92536861 C382.80922532 462.46175905 381.60099177 467.70348898 376.10032272 474.42652893 C367.91084523 481.12701051 360.57083984 481.15561567 350.35032272 480.67652893 C350.37126999 481.31155334 350.39221725 481.94657776 350.41379929 482.60084534 C350.49736853 485.50090969 350.54911046 488.40072009 350.60032272 491.30152893 C350.63383835 492.30055237 350.66735397 493.29957581 350.70188522 494.32887268 C350.78081118 500.28778256 350.59583304 504.10768505 346.35032272 508.67652893 C341.12102217 513.06744851 337.0605119 513.25464307 330.53391647 513.17262268 C329.59983459 513.17407791 328.66575272 513.17553314 327.70336533 513.17703247 C325.73579909 513.17537791 323.76821932 513.16386637 321.80076218 513.14308167 C318.79393578 513.11408788 315.78886996 513.12249001 312.78196335 513.13551331 C310.86593918 513.12927642 308.94992056 513.12088588 307.03391647 513.11012268 C305.69000084 513.11452614 305.69000084 513.11452614 304.31893539 513.11901855 C298.61331551 513.03298016 295.07290646 512.25473322 290.80344772 508.21168518 C283.6934829 499.50890356 286.35032272 493.39396194 286.35032272 480.67652893 C180.75032272 480.67652893 75.15032272 480.67652893 -33.64967728 480.67652893 C-33.64967728 486.94652893 -33.64967728 493.21652893 -33.64967728 499.67652893 C-37.15529525 507.85630421 -37.15529525 507.85630421 -41.64967728 511.67652893 C-44.37281348 512.584241 -46.03536895 512.81614638 -48.84230423 512.85353088 C-49.68360382 512.86636612 -50.52490341 512.87920135 -51.39169693 512.89242554 C-52.29796326 512.89981247 -53.20422958 512.9071994 -54.13795853 512.91481018 C-55.07391357 512.92288193 -56.00986862 512.93095367 -56.97418594 512.93927002 C-58.95543445 512.95309995 -60.93670667 512.96382698 -62.91798782 512.97169495 C-65.94034073 512.98890459 -68.96159867 513.03280005 -71.98366165 513.07691956 C-73.91008591 513.08704719 -75.83651946 513.09556307 -77.76295853 513.10231018 C-78.66315216 513.11981827 -79.56334579 513.13732635 -80.49081802 513.15536499 C-86.06144032 513.13620882 -89.23390135 512.39846419 -93.64967728 508.67652893 C-98.6000791 503.34910975 -98.13005132 498.16844759 -97.89967728 491.30152893 C-97.8816304 490.27930237 -97.86358353 489.25707581 -97.84498978 488.20387268 C-97.79807218 485.69378145 -97.73244457 483.18565129 -97.64967728 480.67652893 C-98.63967728 480.72293518 -99.62967728 480.76934143 -100.64967728 480.81715393 C-109.95998686 481.12482559 -116.12321948 480.48286844 -123.39967728 474.36402893 C-129.86632748 466.63997452 -130.22692911 461.09585586 -130.15761185 451.17068481 C-130.16222394 449.78853017 -130.16857893 448.40638043 -130.17652082 447.02424091 C-130.19319543 443.2358399 -130.18497649 439.44784273 -130.17257595 435.6594404 C-130.16351996 431.5700467 -130.17749796 427.4807221 -130.18849564 423.39134216 C-130.20628008 415.38378694 -130.20244108 407.37638171 -130.19084507 399.36882062 C-130.1818101 392.86017593 -130.18058703 386.35157327 -130.18494034 379.84292412 C-130.18555327 378.91643632 -130.1861662 377.98994851 -130.18679771 377.03538532 C-130.18807662 375.1532069 -130.18937347 373.27102849 -130.19068807 371.38885009 C-130.20209382 353.74016511 -130.18898059 336.09156324 -130.16748661 318.44289189 C-130.14961859 303.30287445 -130.1527173 288.1629797 -130.17116165 273.02296448 C-130.19257356 255.43881728 -130.20099207 237.85474294 -130.1887126 220.27058452 C-130.18743841 218.39503953 -130.18618093 216.51949452 -130.18494034 214.64394951 C-130.18432324 213.72116318 -130.18370613 212.79837685 -130.18307033 211.8476273 C-130.17961817 205.34808263 -130.18544295 198.84858421 -130.19485855 192.34904671 C-130.20608359 184.4263281 -130.20302799 176.50376799 -130.18173558 168.58106751 C-130.17123148 164.53953228 -130.16709224 160.49826119 -130.18033218 156.45672798 C-130.19227558 152.75494129 -130.18566198 149.0536629 -130.16442198 145.35192215 C-130.15785669 143.38279356 -130.17087474 141.41362952 -130.1846509 139.44453818 C-130.11259211 131.30295011 -129.20237139 125.73069677 -123.68483353 119.43434143 C-123.03385696 118.89551331 -122.3828804 118.35668518 -121.71217728 117.80152893 C-121.06377884 117.24723206 -120.4153804 116.69293518 -119.74733353 116.12184143 C-114.81026031 112.72013363 -110.24327311 112.38334986 -104.37970352 112.39805603 C-103.55055382 112.39226363 -102.72140412 112.38647123 -101.86712867 112.3805033 C-99.09107347 112.3635091 -96.31518458 112.36062729 -93.53908157 112.35768127 C-91.54821744 112.3483827 -89.55735722 112.33821414 -87.56650162 112.32723999 C-82.16201966 112.29991797 -76.75756381 112.28478401 -71.35303092 112.27181196 C-65.70487836 112.2561911 -60.05677918 112.22939754 -54.4086647 112.20378113 C-43.71322915 112.15697487 -33.01778357 112.12023967 -22.32229787 112.08710825 C-10.14583889 112.04889995 2.03056651 111.99948639 14.20698035 111.9491241 C39.25472144 111.84577675 64.30249694 111.75652543 89.35032272 111.67652893 C88.84617875 111.17330675 88.34203478 110.67008457 87.82261372 110.15161324 C75.56864683 97.91970896 63.31743288 85.68505426 51.06929493 73.44731331 C45.14617851 67.52935815 39.2221263 61.61234541 33.29587936 55.69752502 C28.13193199 50.54352967 22.96973143 45.38779231 17.80964082 40.22993553 C15.07612909 37.49773001 12.34173717 34.7664184 9.60525322 32.03718948 C7.03160229 29.47030692 4.46028683 26.90110832 1.89077187 24.33008575 C0.49351166 22.93323346 -0.906239 21.53887376 -2.30604935 20.14457703 C-3.13201111 19.3172406 -3.95797287 18.48990417 -4.80896378 17.63749695 C-5.53072768 16.91665483 -6.25249159 16.19581272 -6.99612713 15.45312691 C-9.36718779 12.90562535 -9.63311823 11.85536667 -9.96217728 8.30152893 C-9.64967728 4.67652893 -9.64967728 4.67652893 -8.14967728 2.23902893 C-5.38637605 0.51196567 -3.2668815 -0.08762319 0 0 Z " fill="#60515F" transform="translate(129.64967727661133,-0.6765289306640625)"/>
<path d="M0 0 C2.44532794 -0.00514373 4.89065218 -0.01242842 7.33596802 -0.02168274 C13.26609488 -0.03823326 19.19591962 -0.03160171 25.12601686 -0.01359452 C29.94925906 0.0004811 34.77241183 0.00431369 39.59567261 0.00096321 C40.62879724 0.00024705 40.62879724 0.00024705 41.68279308 -0.00048358 C43.08235592 -0.00151 44.48191873 -0.00256537 45.88148153 -0.00364935 C58.2332281 -0.01220001 70.58481559 0.00440526 82.93652344 0.03417969 C94.89817995 0.06301313 106.85960732 0.07009853 118.82128906 0.0546875 C131.87411112 0.0378935 144.9268246 0.03392365 157.97964954 0.05139786 C159.37381298 0.05324208 160.76797643 0.05507681 162.16213989 0.05690193 C163.19083865 0.05827007 163.19083865 0.05827007 164.24031919 0.05966584 C169.05288088 0.06525139 173.86538923 0.06198264 178.677948 0.05535698 C185.16565826 0.04677894 191.65311399 0.05989156 198.14077377 0.08720589 C200.51586813 0.09406802 202.89099329 0.09421114 205.26608658 0.08699036 C234.30852109 0.0088967 234.30852109 0.0088967 245.74609375 11.11547852 C251.54059121 17.95001398 254.02664909 25.20897392 254.0328064 34.04832458 C254.03718865 34.81012891 254.0415709 35.57193324 254.04608595 36.35682255 C254.05947373 38.91757169 254.06565288 41.47828641 254.07177734 44.0390625 C254.07967862 45.87222957 254.08794759 47.70539508 254.09655762 49.53855896 C254.12278496 55.56808994 254.13809062 61.59762787 254.15234375 67.62719727 C254.15770402 69.70436164 254.16308153 71.78152597 254.1684761 73.85869026 C254.19011002 82.50319409 254.20884415 91.14769606 254.2200985 99.79222012 C254.23631896 112.16930328 254.26944476 124.54607157 254.32649934 136.92303604 C254.36526517 145.63064302 254.38473932 154.33816603 254.39001906 163.04585701 C254.39366473 168.24311621 254.40560181 173.44003962 254.4381218 178.63720512 C254.4683176 183.53336462 254.47447332 188.42898722 254.46273804 193.32522011 C254.46251823 195.11497886 254.47074562 196.90476335 254.48839188 198.69443512 C254.5969309 210.34380149 253.70328863 219.75702992 246.7734375 229.63110352 C239.71002621 236.41621905 231.48966803 240.74596704 221.52312946 240.76253128 C220.21846036 240.768293 220.21846036 240.768293 218.8874343 240.77417111 C217.93637862 240.77330463 216.98532294 240.77243815 216.00544739 240.77154541 C214.99157524 240.77451653 213.9777031 240.77748765 212.93310755 240.78054881 C209.5254651 240.78924139 206.11785775 240.79074454 202.71020508 240.79223633 C200.27104619 240.79686413 197.83188803 240.80188873 195.39273071 240.80728149 C188.75827601 240.8204117 182.12383506 240.82688849 175.48937058 240.83129215 C171.34508718 240.83405619 167.20080611 240.83829387 163.05652428 240.84279633 C151.57767922 240.85498858 140.09883602 240.86528759 128.61998463 240.86867142 C127.88545397 240.86889098 127.15092331 240.86911055 126.39413415 240.86933677 C125.28972837 240.86966419 125.28972837 240.86966419 124.16301137 240.86999822 C122.67109287 240.87044168 121.17917436 240.87088824 119.68725586 240.87133789 C118.94721558 240.87155932 118.2071753 240.87178075 117.44470956 240.87200889 C105.45884252 240.87595519 93.47303633 240.89340428 81.48719279 240.91669741 C69.17553517 240.94043016 56.86390806 240.95287416 44.5522272 240.95403934 C37.64211792 240.95495508 30.73208791 240.96068187 23.8220005 240.97885895 C17.32052317 240.99590109 10.81915603 240.99749815 4.31766129 240.98871994 C1.93323679 240.98794921 -0.45119576 240.99229702 -2.8355999 241.00217819 C-6.09481772 241.01489098 -9.35350236 241.00902405 -12.61271667 240.99859619 C-13.55261875 241.0066526 -14.49252082 241.014709 -15.46090478 241.02300954 C-25.22373649 240.95013435 -33.68271318 238.07489836 -41.12109375 231.63110352 C-47.33937068 224.3154836 -50.59401718 216.22549211 -50.50204468 206.63038635 C-50.50672465 205.86627675 -50.51140462 205.10216716 -50.51622641 204.31490272 C-50.52811075 201.77632307 -50.5187452 199.23828987 -50.50927734 196.69970703 C-50.513346 194.87078539 -50.51868953 193.04186621 -50.52520752 191.21295166 C-50.53885285 186.26043809 -50.53359369 181.30811257 -50.52407026 176.35559583 C-50.5164581 171.1641371 -50.52352371 165.97269413 -50.52822876 160.78123474 C-50.53368226 152.06311157 -50.52650583 143.34506471 -50.51220703 134.62695312 C-50.49588644 124.56014719 -50.50116639 114.49352361 -50.51768625 104.42672211 C-50.53131877 95.77169888 -50.53321198 87.11673041 -50.52537024 78.4616999 C-50.52070278 73.29769939 -50.52004325 68.13378446 -50.52997971 62.96978951 C-50.5386726 58.11303843 -50.53258506 53.25652143 -50.51529694 48.39979553 C-50.51134427 46.62169724 -50.51244514 44.84357911 -50.51908493 43.06548882 C-50.56475267 29.58911845 -49.44904798 19.59651302 -40.12109375 9.06860352 C-28.67542791 -1.4944843 -14.57758322 -0.07793855 0 0 Z " fill="#010101" transform="translate(114.12109375,175.368896484375)"/>
<path d="M0 0 C5.52209505 1.58950812 9.22705143 6.78178801 13.03538132 10.86598206 C14.0859968 11.9614485 15.13862879 13.05498403 16.19311142 14.14672852 C18.45899264 16.49881129 20.71264218 18.86179911 22.95821381 21.23327637 C26.52317682 24.99299373 30.12877253 28.71194419 33.74354172 32.42372131 C44.01695835 42.98252491 54.26053816 53.5683972 64.40403366 64.25221252 C70.00896756 70.1550136 75.66056402 76.00882415 81.36672652 81.81387091 C84.37879261 84.88230695 87.3623464 87.96970343 90.28911591 91.11978149 C105.47331186 107.93563165 105.47331186 107.93563165 126.35032272 114.71168518 C142.89044752 113.91852625 153.63590869 100.56497038 164.13724184 89.26239967 C167.1030353 86.10198795 170.14828694 83.02004916 173.18635178 79.92933655 C178.91266693 74.08167754 184.57274551 68.17444028 190.20795095 62.23906088 C200.32022063 51.59292995 210.54822518 41.05826515 220.79238546 30.53918695 C224.38026943 26.85004973 227.94024012 23.1365139 231.47854829 19.39981842 C233.67727906 17.08400047 235.89204136 14.78397062 238.11052895 12.48708916 C239.13374531 11.42019151 240.14978859 10.34636008 241.15792274 9.26519966 C248.74298935 1.139192 248.74298935 1.139192 252.70064545 0 C255.96752695 -0.08762319 258.0870215 0.51196567 260.85032272 2.23902893 C263.03103935 5.78269345 263.10363995 7.56752587 262.35032272 11.67652893 C257.79919875 18.06387285 251.65099106 23.51323962 246.11033249 29.03004456 C245.21198181 29.92854126 244.31363113 30.82703796 243.38805771 31.75276184 C240.94863408 34.19246988 238.50616146 36.62910385 236.06308866 39.06515694 C233.50150225 41.62045002 230.9427878 44.17861576 228.38375473 46.73646545 C223.54817432 51.56895006 218.71005275 56.39888206 213.87099069 61.22788 C208.35745472 66.7302002 202.84679158 72.23539381 197.33635628 77.74081898 C186.01085004 89.05590051 174.68177924 100.3674061 163.35032272 111.67652893 C164.3840023 111.67799549 165.41768188 111.67946205 166.48268509 111.68097305 C191.63800919 111.7175731 216.7932002 111.77702941 241.94841385 111.86043167 C254.1133102 111.90023568 266.27814172 111.9326213 278.44309616 111.94752502 C289.04645765 111.96053442 299.6496766 111.98748105 310.25295782 112.031142 C315.86698258 112.05377263 321.48083143 112.06943864 327.09490585 112.06841278 C332.3808904 112.06766713 337.66648582 112.08558018 342.95236969 112.11769676 C344.89051031 112.12620346 346.82869453 112.12794047 348.7668457 112.12233162 C351.41821186 112.11568183 354.0683435 112.13363534 356.71958542 112.157547 C357.48225424 112.14978658 358.24492307 112.14202616 359.03070307 112.13403058 C365.53635718 112.23752796 370.68927493 114.34463514 375.59251022 118.64137268 C376.40075241 119.61783752 376.40075241 119.61783752 377.22532272 120.61402893 C377.7796196 121.26242737 378.33391647 121.91082581 378.90501022 122.57887268 C381.79640517 126.77530264 382.60052961 130.4310205 382.60759163 135.48562336 C382.61404052 136.65409913 382.62048941 137.82257491 382.62713373 139.02645904 C382.62403652 140.3060146 382.62093932 141.58557017 382.61774826 142.90390015 C382.62148525 144.28019974 382.62608697 145.65649721 382.63147891 147.03279132 C382.64371834 150.81419966 382.64344733 154.59551959 382.64109015 158.37694323 C382.64068223 162.45545163 382.65171885 166.53393159 382.66120529 170.61242676 C382.67782147 178.60283347 382.68331512 186.59321068 382.68443005 194.58363322 C382.68538024 201.07849217 382.68948907 207.57334138 382.6958313 214.06819725 C382.71344545 232.48087063 382.72266991 250.8935207 382.72117035 269.30620257 C382.72105048 270.79529415 382.72105048 270.79529415 382.72092819 272.31446838 C382.72084643 273.30840773 382.72076467 274.30234707 382.72068043 275.32640579 C382.7198675 291.4353075 382.73900658 307.54411571 382.76720493 323.65299038 C382.79592795 340.19205547 382.80974554 356.73107495 382.80801737 373.27016562 C382.80735327 382.55617609 382.81285458 391.84208854 382.83437347 401.12807655 C382.85257762 409.03435928 382.85693894 416.94049957 382.84335463 424.84679417 C382.83682106 428.88022546 382.83672162 432.91338343 382.85406113 436.94678879 C382.86978002 440.6412363 382.86694075 444.33519349 382.84949286 448.02962895 C382.84496785 449.99489012 382.86008963 451.96016641 382.87597215 453.92536861 C382.80922532 462.46175905 381.60099177 467.70348898 376.10032272 474.42652893 C367.91084523 481.12701051 360.57083984 481.15561567 350.35032272 480.67652893 C350.37126999 481.31155334 350.39221725 481.94657776 350.41379929 482.60084534 C350.49736853 485.50090969 350.54911046 488.40072009 350.60032272 491.30152893 C350.63383835 492.30055237 350.66735397 493.29957581 350.70188522 494.32887268 C350.78081118 500.28778256 350.59583304 504.10768505 346.35032272 508.67652893 C341.12102217 513.06744851 337.0605119 513.25464307 330.53391647 513.17262268 C329.59983459 513.17407791 328.66575272 513.17553314 327.70336533 513.17703247 C325.73579909 513.17537791 323.76821932 513.16386637 321.80076218 513.14308167 C318.79393578 513.11408788 315.78886996 513.12249001 312.78196335 513.13551331 C310.86593918 513.12927642 308.94992056 513.12088588 307.03391647 513.11012268 C305.69000084 513.11452614 305.69000084 513.11452614 304.31893539 513.11901855 C298.61331551 513.03298016 295.07290646 512.25473322 290.80344772 508.21168518 C283.6934829 499.50890356 286.35032272 493.39396194 286.35032272 480.67652893 C180.75032272 480.67652893 75.15032272 480.67652893 -33.64967728 480.67652893 C-33.64967728 486.94652893 -33.64967728 493.21652893 -33.64967728 499.67652893 C-37.15529525 507.85630421 -37.15529525 507.85630421 -41.64967728 511.67652893 C-44.37281348 512.584241 -46.03536895 512.81614638 -48.84230423 512.85353088 C-49.68360382 512.86636612 -50.52490341 512.87920135 -51.39169693 512.89242554 C-52.29796326 512.89981247 -53.20422958 512.9071994 -54.13795853 512.91481018 C-55.07391357 512.92288193 -56.00986862 512.93095367 -56.97418594 512.93927002 C-58.95543445 512.95309995 -60.93670667 512.96382698 -62.91798782 512.97169495 C-65.94034073 512.98890459 -68.96159867 513.03280005 -71.98366165 513.07691956 C-73.91008591 513.08704719 -75.83651946 513.09556307 -77.76295853 513.10231018 C-78.66315216 513.11981827 -79.56334579 513.13732635 -80.49081802 513.15536499 C-86.06144032 513.13620882 -89.23390135 512.39846419 -93.64967728 508.67652893 C-98.6000791 503.34910975 -98.13005132 498.16844759 -97.89967728 491.30152893 C-97.8816304 490.27930237 -97.86358353 489.25707581 -97.84498978 488.20387268 C-97.79807218 485.69378145 -97.73244457 483.18565129 -97.64967728 480.67652893 C-98.63967728 480.72293518 -99.62967728 480.76934143 -100.64967728 480.81715393 C-109.95998686 481.12482559 -116.12321948 480.48286844 -123.39967728 474.36402893 C-129.86632748 466.63997452 -130.22692911 461.09585586 -130.15761185 451.17068481 C-130.16222394 449.78853017 -130.16857893 448.40638043 -130.17652082 447.02424091 C-130.19319543 443.2358399 -130.18497649 439.44784273 -130.17257595 435.6594404 C-130.16351996 431.5700467 -130.17749796 427.4807221 -130.18849564 423.39134216 C-130.20628008 415.38378694 -130.20244108 407.37638171 -130.19084507 399.36882062 C-130.1818101 392.86017593 -130.18058703 386.35157327 -130.18494034 379.84292412 C-130.18555327 378.91643632 -130.1861662 377.98994851 -130.18679771 377.03538532 C-130.18807662 375.1532069 -130.18937347 373.27102849 -130.19068807 371.38885009 C-130.20209382 353.74016511 -130.18898059 336.09156324 -130.16748661 318.44289189 C-130.14961859 303.30287445 -130.1527173 288.1629797 -130.17116165 273.02296448 C-130.19257356 255.43881728 -130.20099207 237.85474294 -130.1887126 220.27058452 C-130.18743841 218.39503953 -130.18618093 216.51949452 -130.18494034 214.64394951 C-130.18432324 213.72116318 -130.18370613 212.79837685 -130.18307033 211.8476273 C-130.17961817 205.34808263 -130.18544295 198.84858421 -130.19485855 192.34904671 C-130.20608359 184.4263281 -130.20302799 176.50376799 -130.18173558 168.58106751 C-130.17123148 164.53953228 -130.16709224 160.49826119 -130.18033218 156.45672798 C-130.19227558 152.75494129 -130.18566198 149.0536629 -130.16442198 145.35192215 C-130.15785669 143.38279356 -130.17087474 141.41362952 -130.1846509 139.44453818 C-130.11259211 131.30295011 -129.20237139 125.73069677 -123.68483353 119.43434143 C-123.03385696 118.89551331 -122.3828804 118.35668518 -121.71217728 117.80152893 C-121.06377884 117.24723206 -120.4153804 116.69293518 -119.74733353 116.12184143 C-114.81026031 112.72013363 -110.24327311 112.38334986 -104.37970352 112.39805603 C-103.55055382 112.39226363 -102.72140412 112.38647123 -101.86712867 112.3805033 C-99.09107347 112.3635091 -96.31518458 112.36062729 -93.53908157 112.35768127 C-91.54821744 112.3483827 -89.55735722 112.33821414 -87.56650162 112.32723999 C-82.16201966 112.29991797 -76.75756381 112.28478401 -71.35303092 112.27181196 C-65.70487836 112.2561911 -60.05677918 112.22939754 -54.4086647 112.20378113 C-43.71322915 112.15697487 -33.01778357 112.12023967 -22.32229787 112.08710825 C-10.14583889 112.04889995 2.03056651 111.99948639 14.20698035 111.9491241 C39.25472144 111.84577675 64.30249694 111.75652543 89.35032272 111.67652893 C88.84617875 111.17330675 88.34203478 110.67008457 87.82261372 110.15161324 C75.56864683 97.91970896 63.31743288 85.68505426 51.06929493 73.44731331 C45.14617851 67.52935815 39.2221263 61.61234541 33.29587936 55.69752502 C28.13193199 50.54352967 22.96973143 45.38779231 17.80964082 40.22993553 C15.07612909 37.49773001 12.34173717 34.7664184 9.60525322 32.03718948 C7.03160229 29.47030692 4.46028683 26.90110832 1.89077187 24.33008575 C0.49351166 22.93323346 -0.906239 21.53887376 -2.30604935 20.14457703 C-3.13201111 19.3172406 -3.95797287 18.48990417 -4.80896378 17.63749695 C-5.53072768 16.91665483 -6.25249159 16.19581272 -6.99612713 15.45312691 C-9.36718779 12.90562535 -9.63311823 11.85536667 -9.96217728 8.30152893 C-9.64967728 4.67652893 -9.64967728 4.67652893 -8.14967728 2.23902893 C-5.38637605 0.51196567 -3.2668815 -0.08762319 0 0 Z M-113.64967728 131.67652893 C-114.93985511 134.25688461 -114.7798605 136.10626396 -114.78669167 138.99712753 C-114.79176621 140.13299639 -114.79684075 141.26886526 -114.80206907 142.43915439 C-114.80256683 143.69768513 -114.80306458 144.95621587 -114.80357742 146.25288391 C-114.80759077 147.59502008 -114.81202878 148.93715504 -114.81685698 150.27928853 C-114.8288426 153.98009834 -114.83447552 157.68089511 -114.83903813 161.38172054 C-114.84498669 165.36821285 -114.85659837 169.3546895 -114.86732864 173.34117126 C-114.89186945 182.97485184 -114.90648208 192.60853761 -114.91938871 202.24223983 C-114.92309936 204.96210474 -114.92707269 207.68196914 -114.93114138 210.40183353 C-114.95637614 227.28297862 -114.97843458 244.16412448 -114.99086952 261.04528427 C-114.99379934 264.95687106 -114.99676098 268.86845783 -114.99977493 272.78004456 C-115.00052098 273.75228011 -115.00126703 274.72451566 -115.00203569 275.72621289 C-115.01469327 291.48101248 -115.04792076 307.23569932 -115.08957677 322.99044618 C-115.13197076 339.15649664 -115.15556161 355.32248933 -115.16079009 371.48859525 C-115.16420705 380.5689432 -115.17599568 389.64911494 -115.20889282 398.72940826 C-115.23685969 406.46162706 -115.24790752 414.19363354 -115.23669736 421.925899 C-115.23150205 425.87204515 -115.23445339 429.81774643 -115.2591629 433.76382828 C-115.28159513 437.37633898 -115.28096354 440.98808373 -115.26195903 444.60060731 C-115.25781972 446.52675156 -115.27834935 448.4529 -115.29974592 450.37892985 C-115.28917398 451.5252297 -115.27860204 452.67152956 -115.26770973 453.85256577 C-115.26906626 454.83951392 -115.27042279 455.82646207 -115.27182043 456.84331775 C-114.36965266 460.95174812 -112.75038412 462.86490803 -109.64967728 465.67652893 C-106.72205404 466.28036089 -104.6147282 466.48363099 -101.69262314 466.42598915 C-100.89312789 466.4341106 -100.09363265 466.44223205 -99.26991028 466.45059961 C-96.57959105 466.4705588 -93.89134262 466.4476044 -91.20106888 466.42497253 C-89.25752723 466.43045153 -87.3139915 466.43855381 -85.37047052 466.44905984 C-80.02104754 466.47028432 -74.67229044 466.45394368 -69.32289624 466.43155885 C-63.55729686 466.41390991 -57.79178628 466.43075163 -52.0261879 466.44328308 C-40.72797431 466.46228379 -29.43001574 466.44903793 -18.13182104 466.4247572 C-4.98270615 466.39754875 8.16634763 466.40079012 21.31548351 466.40502386 C45.48139482 466.4121856 69.64717994 466.38575747 93.8130528 466.34533378 C115.88036048 466.30859401 137.94753853 466.29696899 160.0148735 466.30787659 C161.43177682 466.30856945 162.84868014 466.30926165 164.26558346 466.30995317 C164.96606872 466.31029516 165.66655398 466.31063715 166.38826607 466.3109895 C169.914312 466.31269655 173.44035797 466.31434413 176.96640396 466.31592751 C177.66201729 466.31624167 178.35763062 466.31655583 179.07432314 466.31687951 C197.50579236 466.32485701 215.93724836 466.3138212 234.36871004 466.29690492 C237.01010799 466.29449027 239.65150594 466.2920783 242.2929039 466.28966904 C243.59262134 466.28846196 244.89233877 466.28725488 246.23144159 466.28601123 C255.40337461 466.27824335 264.57528436 466.27904386 273.74721909 466.28284073 C284.92031722 466.28707929 296.09329056 466.27667717 307.26635349 466.24761362 C312.97021369 466.23309832 318.6738919 466.22499475 324.37776756 466.23410034 C329.59493323 466.24222654 334.81172241 466.23199908 340.02883083 466.20684819 C341.92040446 466.20097081 343.81201338 466.20188951 345.70357817 466.21013434 C348.26726216 466.22029779 350.82967407 466.20604337 353.39326859 466.18548012 C354.50489218 466.19866957 354.50489218 466.19866957 355.63897282 466.21212548 C360.47710354 466.13778731 362.95487688 465.1180212 366.35032272 461.67652893 C367.6410903 459.09499378 367.47930195 457.24531724 367.4845438 454.35313702 C367.49123057 452.64840868 367.49123057 452.64840868 367.49805242 450.90924138 C367.49786806 449.65002852 367.49768369 448.39081565 367.49749374 447.09344482 C367.50079156 445.75059617 367.50451695 444.40774851 367.50863522 443.06490213 C367.51867264 439.36215933 367.5223748 435.65943275 367.52502453 431.95667827 C367.5289224 427.96816178 367.53850104 423.97965818 367.5472374 419.9911499 C367.56701582 410.35302172 367.57706947 400.71489246 367.58596519 391.07674906 C367.59034557 386.54120961 367.595713 382.00567134 367.60095406 377.47013283 C367.61796723 362.39874482 367.6324625 347.32735755 367.6397028 332.25596142 C367.64161278 328.34333482 367.6435331 324.43070824 367.64548874 320.51808167 C367.64597248 319.5455838 367.64645622 318.57308594 367.64695462 317.57111845 C367.655259 301.80919563 367.68060238 286.0473486 367.71306942 270.28545889 C367.74610983 254.11376242 367.7641488 237.94210452 367.76734704 221.77037412 C367.76951487 212.6861748 367.77830339 203.60208603 367.80380821 194.51791954 C367.82547399 186.78312869 367.83358601 179.04847523 367.82384143 171.31365748 C367.81928478 167.36567226 367.82126164 163.41797075 367.84060287 159.47002411 C367.85815063 155.85703736 367.85730591 152.24454303 367.84170558 148.63155166 C367.83818337 146.70269465 367.85441825 144.77383296 367.87131006 142.8450467 C367.85843872 141.1285835 367.85843872 141.1285835 367.84530735 139.37744427 C367.84677256 137.89645246 367.84677256 137.89645246 367.84826738 136.38554162 C367.20878853 132.90652786 365.76049396 131.2157559 363.35032272 128.67652893 C360.3006948 127.15171497 357.12383951 127.5356659 353.77802944 127.54230785 C352.9836841 127.53995562 352.18933877 127.53760339 351.37092236 127.53517988 C348.6807487 127.52846644 345.99062309 127.52894881 343.30044174 127.52935791 C341.36362217 127.52606075 339.42680329 127.5223355 337.48998529 127.51821643 C332.14541633 127.50817161 326.80085861 127.50447567 321.45628154 127.50182712 C315.70087954 127.49793145 309.94548649 127.48835268 304.19009018 127.47961426 C290.28051029 127.45982979 276.37092965 127.4497815 262.46133921 127.44088647 C255.91746486 127.43650714 249.37359133 127.43113945 242.82971764 127.4258976 C221.08779648 127.40888396 199.34587628 127.39436339 177.60394955 127.38714886 C176.19743517 127.3866741 174.79092079 127.38619821 173.38440641 127.3857212 C172.68688818 127.38548482 171.98936995 127.38524844 171.2707148 127.3850049 C167.73662252 127.38380368 164.20253024 127.38258824 160.66843796 127.38136292 C159.96708146 127.38112277 159.26572496 127.38088262 158.54311524 127.38063519 C135.79555485 127.37273954 113.04804656 127.34930258 90.30050892 127.31680697 C66.26197483 127.28252969 42.22347256 127.26280085 18.18491346 127.25950462 C5.07655128 127.25733575 -8.03173432 127.2485321 -21.14007378 127.22304344 C-32.30040758 127.20139321 -43.46064623 127.19325798 -54.62099866 127.20301022 C-60.31878111 127.20757133 -66.01636698 127.20556397 -71.71412277 127.18624878 C-76.92582517 127.16873327 -82.1371859 127.16951973 -87.34889134 127.18514607 C-89.23854874 127.1875399 -91.12822908 127.18310766 -93.01785121 127.17131742 C-95.57894165 127.15632202 -98.13880198 127.16578439 -100.69986057 127.1815443 C-101.44019617 127.1713221 -102.18053176 127.16109989 -102.94330177 127.15056792 C-107.78205139 127.21593057 -110.25453202 128.23466015 -113.64967728 131.67652893 Z " fill="#000000" transform="translate(129.64967727661133,-0.6765289306640625)"/>
<path d="M0 0 C0.79434534 -0.00235223 1.58869068 -0.00470446 2.40710708 -0.00712797 C5.09728074 -0.01384142 7.78740635 -0.01335905 10.4775877 -0.01294994 C12.41440727 -0.0162471 14.35122616 -0.01997235 16.28804415 -0.02409142 C21.63261311 -0.03413624 26.97717084 -0.03783219 32.3217479 -0.04048073 C38.07714991 -0.0443764 43.83254296 -0.05395518 49.58793926 -0.0626936 C63.49751915 -0.08247806 77.40709979 -0.09252636 91.31669024 -0.10142139 C97.86056458 -0.10580071 104.40443811 -0.11116841 110.94831181 -0.11641026 C132.69023296 -0.13342389 154.43215316 -0.14794447 176.1740799 -0.155159 C177.58059428 -0.15563376 178.98710866 -0.15610965 180.39362304 -0.15658666 C181.43990038 -0.15694122 181.43990038 -0.15694122 182.50731464 -0.15730295 C186.04140693 -0.15850417 189.57549921 -0.15971961 193.10959148 -0.16094494 C194.16162623 -0.16130516 194.16162623 -0.16130516 195.23491421 -0.16167267 C217.98247459 -0.16956831 240.72998289 -0.19300528 263.47752052 -0.22550088 C287.51605461 -0.25977816 311.55455689 -0.279507 335.59311599 -0.28280324 C348.70147816 -0.2849721 361.80976377 -0.29377575 374.91810322 -0.31926441 C386.07843703 -0.34091464 397.23867567 -0.34904987 408.3990281 -0.33929763 C414.09681055 -0.33473653 419.79439642 -0.33674389 425.49215221 -0.35605907 C430.70385461 -0.37357459 435.91521534 -0.37278812 441.12692078 -0.35716178 C443.01657818 -0.35476796 444.90625852 -0.35920019 446.79588065 -0.37099043 C449.3569711 -0.38598583 451.91683143 -0.37652347 454.47789001 -0.36076355 C455.58839341 -0.37609686 455.58839341 -0.37609686 456.72133121 -0.39173993 C461.56008084 -0.32637728 464.03256146 0.6923523 467.42770672 4.13422108 C468.7184743 6.71575623 468.55668595 8.56543277 468.5619278 11.45761299 C468.56638564 12.59409855 468.57084348 13.73058411 468.57543641 14.90150863 C468.57515987 16.79032792 468.57515987 16.79032792 468.57487774 18.71730518 C468.57817555 20.06015384 468.58190095 21.40300149 468.58601922 22.74584788 C468.59605663 26.44859068 468.5997588 30.15131726 468.60240853 33.85407174 C468.6063064 37.84258823 468.61588504 41.83109183 468.62462139 45.81960011 C468.64439981 55.45772829 468.65445347 65.09585754 468.66334918 74.73400095 C468.66772957 79.26954039 468.673097 83.80507866 468.67833805 88.34061718 C468.69535122 103.41200519 468.70984649 118.48339245 468.71708679 133.55478859 C468.71899677 137.46741518 468.72091709 141.38004177 468.72287273 145.29266834 C468.72335647 146.2651662 468.72384021 147.23766406 468.72433861 148.23963156 C468.73264299 164.00155438 468.75798638 179.76340141 468.79045341 195.52529112 C468.82349383 211.69698758 468.84153279 227.86864549 468.84473103 244.04037589 C468.84689887 253.12457521 468.85568739 262.20866398 468.88119221 271.29283047 C468.90285799 279.02762131 468.91097 286.76227477 468.90122543 294.49709252 C468.89666878 298.44507775 468.89864564 302.39277926 468.91798687 306.3407259 C468.93553463 309.95371265 468.9346899 313.56620698 468.91908958 317.17919835 C468.91556737 319.10805536 468.93180225 321.03691704 468.94869405 322.96570331 C468.94011316 324.11001211 468.93153226 325.25432091 468.92269135 326.43330574 C468.92366815 327.42063361 468.92464496 328.40796149 468.92565137 329.42520839 C468.28617253 332.90422215 466.83787796 334.59499411 464.42770672 337.13422108 C461.3745447 338.66080209 458.18978114 338.27810768 454.83979607 338.27402878 C453.6457455 338.27845591 453.6457455 338.27845591 452.4275727 338.28297248 C449.7316592 338.29170806 447.03578839 338.29324815 444.33986187 338.29485035 C442.39891721 338.29957826 440.45797353 338.30472875 438.51703101 338.31026798 C433.16106377 338.32421202 427.80510335 338.33176835 422.44912255 338.33824098 C417.86082281 338.34460087 413.27253435 338.35467247 408.68424162 338.36480164 C393.56563212 338.39816357 378.44701577 338.41965273 363.32838151 338.43800148 C359.3939872 338.44279404 355.45959318 338.44777765 351.52519917 338.45280671 C327.11353202 338.48377253 302.70186329 338.51047323 278.29018211 338.52722549 C272.63297998 338.53116288 266.9757779 338.53517469 261.31857586 338.53925037 C260.61572452 338.53975204 259.91287318 338.54025371 259.18872331 338.54077058 C236.39263273 338.55719438 213.59664938 338.59565865 190.80061157 338.64653748 C166.71084963 338.70020599 142.62115228 338.73193884 118.53133041 338.73942238 C105.39497766 338.74409268 92.25880242 338.75892821 79.12250614 338.79916668 C67.9383559 338.83338313 56.75441515 338.84744003 45.57021555 338.83474254 C39.86018599 338.8288962 34.15059998 338.83291833 28.44063663 338.86291218 C23.21769592 338.89012484 17.995517 338.88988963 12.77256045 338.86740173 C10.87885834 338.86415931 8.98510657 338.87115961 7.09148761 338.88919895 C4.5244329 338.91217944 1.96013263 338.8984656 -0.60685921 338.87530136 C-1.34879915 338.8907776 -2.09073909 338.90625383 -2.85516205 338.92219904 C-6.95158791 338.84013486 -8.45797504 338.23788117 -11.53098214 335.45137751 C-13.66995387 331.97552139 -14.19760656 330.33429394 -14.19870567 326.31863785 C-14.21112771 325.17418809 -14.22354975 324.02973834 -14.23634821 322.85060829 C-14.22451248 321.60304679 -14.21267676 320.3554853 -14.20048237 319.0701189 C-14.20552953 317.72380951 -14.21275968 316.37750682 -14.22198051 315.03121954 C-14.24090599 311.33728936 -14.228668 307.64402138 -14.21125758 303.95010793 C-14.19788808 299.96435992 -14.21331908 295.97870908 -14.22507954 291.99297047 C-14.24346316 284.18744425 -14.23493928 276.38216827 -14.21699131 268.57664984 C-14.20296933 262.23385391 -14.19907164 255.89112594 -14.20243359 249.548316 C-14.20314975 248.19454919 -14.20314975 248.19454919 -14.20388038 246.81343355 C-14.2049067 244.98004939 -14.20596206 243.14666525 -14.20704614 241.31328113 C-14.21561454 225.10014265 -14.19893315 208.88712506 -14.16921711 192.674016 C-14.14037459 176.93731071 -14.13329824 161.20077954 -14.1487093 145.46405506 C-14.16546465 128.33113817 -14.16951284 111.19830396 -14.15199894 94.06538492 C-14.15015453 92.23902675 -14.1483198 90.41266858 -14.14649487 88.58631039 C-14.14558278 87.68768393 -14.14467069 86.78905747 -14.14373096 85.8631999 C-14.13812178 79.52656931 -14.14143624 73.18997905 -14.14803982 66.85335064 C-14.15576568 59.13326401 -14.1490473 51.41334887 -14.12386478 43.69329684 C-14.11135284 39.75340664 -14.10524359 35.81378366 -14.11640644 31.87388325 C-14.12642899 28.26842086 -14.11803241 24.663492 -14.09482526 21.05809469 C-14.08720289 19.13343326 -14.09923852 17.20872514 -14.111929 15.28409046 C-14.10088131 14.14224845 -14.08983362 13.00040645 -14.07845116 11.82396317 C-14.07725967 10.83880358 -14.07606819 9.853644 -14.07484061 8.83863109 C-13.42944829 5.36551452 -11.97858865 3.67101306 -9.57229328 1.13422108 C-6.52266536 -0.39059288 -3.34581007 -0.00664195 0 0 Z M3.42770672 22.13422108 C2.67457867 26.03802525 2.75350775 29.89780694 2.79278851 33.86322498 C2.78498855 35.06453367 2.7771886 36.26584236 2.76915228 37.50355434 C2.75265486 40.83516528 2.75859591 44.16536751 2.77408338 47.49689293 C2.78539019 51.09071235 2.76793757 54.68440811 2.75418377 58.27820301 C2.73193951 65.31717678 2.73675772 72.35588412 2.75124697 79.39486837 C2.76253459 85.11507607 2.7640722 90.83520905 2.75862789 96.55542469 C2.75786173 97.36925983 2.75709556 98.18309497 2.75630618 99.02159178 C2.75470757 100.67483348 2.7530865 102.32807515 2.75144322 103.9813168 C2.73718225 119.48724686 2.75358388 134.99302916 2.78044505 150.49893498 C2.80278418 163.80647414 2.79890415 177.11379523 2.77585125 190.42133045 C2.74909936 205.87140399 2.73855557 221.321348 2.75391257 236.77144146 C2.75550533 238.41863344 2.75707718 240.06582544 2.75862789 241.71301746 C2.75939927 242.52348738 2.76017065 243.3339573 2.7609654 244.16898692 C2.76528424 249.88295481 2.7579919 255.59684061 2.74623013 261.31079578 C2.73221334 268.27336819 2.73598753 275.23565872 2.76263385 282.1981988 C2.77578342 285.75132831 2.78090572 289.30398771 2.76438808 292.85711384 C2.74676259 296.70674802 2.76779347 300.5556108 2.79278851 304.40521717 C2.7816349 305.53118116 2.77048129 306.65714516 2.75898969 307.81722927 C2.77202843 308.84821932 2.78506716 309.87920937 2.79850101 310.94144154 C2.79931278 311.82993479 2.80012454 312.71842804 2.8009609 313.63384533 C3.73611452 317.36460087 5.38834798 318.83346661 8.42770672 321.13422108 C11.121134 321.62728132 13.18355039 321.80911516 15.86938763 321.76342678 C16.61316654 321.77069398 17.35694545 321.77796119 18.12326312 321.78544861 C20.62385637 321.80374461 23.12292461 321.7863232 25.6235075 321.76913929 C27.43092987 321.77489869 29.23834639 321.78283859 31.04575062 321.79277551 C36.01884884 321.813697 40.99146888 321.80330958 45.96456909 321.78784442 C51.32526017 321.77655652 56.68586758 321.79398089 62.04654217 321.80774403 C72.55062711 321.83000834 83.05453369 321.825161 93.5586257 321.81068082 C102.09347183 321.79940114 110.62826788 321.79785217 119.16311932 321.8032999 C120.37660648 321.80406607 121.59009363 321.80483223 122.84035313 321.80562162 C125.30532282 321.8072202 127.7702925 321.80884127 130.23526216 321.81048457 C153.36383107 321.82475144 176.49230098 321.80833463 199.62085366 321.78148274 C219.4777449 321.75914315 239.33449 321.76302301 259.19137859 321.78607655 C282.23567074 321.81281798 305.27987606 321.82337805 328.32418156 321.80801523 C330.78021906 321.80642244 333.23625659 321.80485058 335.69229412 321.8032999 C336.90079592 321.80252853 338.10929772 321.80175715 339.35442078 321.8009624 C347.88165785 321.79664043 356.40883997 321.80394265 364.93606853 321.81569767 C375.32416071 321.82970279 385.71206392 321.82596456 396.10013437 321.79929395 C401.40304213 321.78612906 406.70563454 321.78104894 412.00854015 321.79753971 C416.85939896 321.81239688 421.70964895 321.80432117 426.56045222 321.77765195 C428.3187858 321.77204897 430.07717041 321.77494791 431.83547139 321.78703089 C434.21972823 321.80216342 436.60188022 321.78672143 438.98602581 321.76342678 C439.67416481 321.77513261 440.36230381 321.78683844 441.0712955 321.79889899 C444.75171172 321.7266655 446.38789027 321.16435743 449.353661 318.91961902 C451.61250334 315.88604326 452.05299219 314.6535627 452.05411911 310.93864822 C452.07275217 309.3912381 452.07275217 309.3912381 452.09176165 307.81256717 C452.07992592 306.68592106 452.06809019 305.55927495 452.05589581 304.39848804 C452.06299019 303.19647379 452.07008458 301.99445953 452.07739395 300.75602061 C452.0919544 297.42246921 452.08407668 294.09033765 452.06667101 290.75689018 C452.05330708 287.16105479 452.06873048 283.5653274 452.08049297 279.96950245 C452.09888078 272.92684369 452.09035003 265.88446221 452.07240475 258.84181207 C452.0583853 253.11921443 452.05448453 247.39669211 452.05784702 241.67407894 C452.05832447 240.85995508 452.05880191 240.04583121 452.05929382 239.20703693 C452.06032013 237.55322951 452.06137549 235.8994221 452.06245958 234.24561471 C452.07102881 219.61915389 452.05434387 204.99282704 452.02463055 190.36639881 C451.99578729 176.16809939 451.9887118 161.96999294 452.00412273 147.77167225 C452.02087606 132.31538914 452.02492841 116.85919768 452.00741237 101.4029122 C452.00556796 99.75545729 452.00373323 98.10800238 452.0019083 96.46054745 C452.00099621 95.64993682 452.00008412 94.83932618 451.99914439 94.00415159 C451.99353399 88.28672414 451.99685081 82.56934136 452.00345325 76.85191631 C452.01117714 69.88678204 452.00446799 62.92183788 451.97927821 55.95674198 C451.96676161 52.40177395 451.96066251 48.84710222 451.97181988 45.29212284 C451.98367493 41.44222158 451.96464476 37.59283399 451.94237041 33.74297047 C451.95473157 32.04965521 451.95473157 32.04965521 451.96734244 30.32213157 C451.9507709 28.77863308 451.9507709 28.77863308 451.93386459 27.20395279 C451.93267311 26.31507982 451.93148163 25.42620685 451.93025404 24.51039833 C451.26423974 21.36130575 449.86397157 20.1658044 447.42770672 18.13422108 C444.64106011 16.74089777 442.36498319 17.0035076 439.24535942 16.99720669 C438.2792393 16.99322895 438.2792393 16.99322895 437.2936016 16.98917085 C435.11458993 16.98145274 432.93563437 16.98091772 430.75660992 16.98032093 C429.18689722 16.97630797 427.61718556 16.97187003 426.04747516 16.96704137 C421.71764805 16.95505165 417.38783209 16.94942189 413.05799162 16.94486022 C408.39462176 16.93891328 403.73126531 16.92730127 399.06790447 16.91656971 C387.7983219 16.89202617 376.52873487 16.87741639 365.25913379 16.86450964 C362.07795374 16.86079936 358.89677414 16.856826 355.71559453 16.85275698 C335.97500432 16.82752388 316.23441344 16.80546352 296.49381065 16.79302883 C291.91944851 16.79009898 287.34508639 16.78713733 282.7707243 16.78412342 C281.63374262 16.78337737 280.49676095 16.78263132 279.32532529 16.78186266 C260.89594948 16.76920184 242.46666999 16.73597003 224.03733923 16.69432159 C205.13101364 16.65194417 186.22473742 16.62833871 167.31836444 16.62310827 C156.69713492 16.61968955 146.07605596 16.60788017 135.45487309 16.57500553 C126.41170045 16.54706152 117.36870922 16.53598081 108.32549676 16.54720099 C103.70913602 16.55240202 99.09315552 16.54940764 94.47684956 16.52473545 C90.25317083 16.50234947 86.03014784 16.50289905 81.80645845 16.52193932 C80.27614783 16.52475438 78.74579374 16.51905773 77.21555337 16.50412638 C75.13875726 16.48509635 73.06431794 16.4967522 70.98757744 16.51618862 C69.83317262 16.51483209 68.6787678 16.51347556 67.48938102 16.51207793 C63.46618867 17.32960498 61.93831943 18.95227445 59.42770672 22.13422108 C59.42770672 23.12422108 59.42770672 24.11422108 59.42770672 25.13422108 C53.81770672 25.13422108 48.20770672 25.13422108 42.42770672 25.13422108 C41.93270672 22.65922108 41.93270672 22.65922108 41.42770672 20.13422108 C39.14012237 17.66583342 37.73659827 17.17693299 34.39084148 16.7142992 C29.70083284 16.6467537 29.70083284 16.6467537 25.01047039 16.63324451 C22.99900346 16.63421682 20.99135737 16.59258231 18.98044109 16.54828358 C17.70620281 16.54570545 16.43196453 16.54312733 15.11911297 16.54047108 C13.95581463 16.53338123 12.79251629 16.52629139 11.59396648 16.5189867 C7.23514026 17.36594808 6.06186831 18.54076633 3.42770672 22.13422108 Z " fill="#D28B63" transform="translate(28.572293281555176,126.86577892303467)"/>
<path d="M0 0 C19.14 0 38.28 0 58 0 C58.0093457 5.22497314 58.01869141 10.44994629 58.02832031 15.83325195 C58.06202601 33.06016054 58.11733644 50.28694908 58.18390274 67.51376057 C58.2237467 77.96254554 58.25611192 88.41125462 58.27099609 98.86010742 C58.2839849 107.96516952 58.31087838 117.070065 58.35461307 126.17503327 C58.37729044 130.99804322 58.39290694 135.82084718 58.39188385 140.64391518 C58.39114093 145.18054402 58.40894273 149.71671643 58.44116783 154.25322723 C58.44970918 155.92094277 58.45138823 157.58870925 58.44580269 159.2564373 C58.43920439 161.52866012 58.45698002 163.79941278 58.48101807 166.07148743 C58.48470524 167.34448354 58.48839241 168.61747965 58.49219131 169.9290514 C58.71649647 173.06278874 58.71649647 173.06278874 60.83712387 174.94475079 C63.89186904 176.43513546 65.78746133 175.90789136 69 175 C71.85720772 172.14279228 71.2610846 170.19684746 71.2784729 166.19174194 C71.2842653 165.48357854 71.2900577 164.77541513 71.29602563 164.04579222 C71.31309756 161.66117929 71.31590825 159.27675905 71.31884766 156.89208984 C71.32814089 155.18737815 71.33830865 153.48267102 71.34928894 151.77796936 C71.37667129 147.13981569 71.39176265 142.50169253 71.40471697 137.86347914 C71.42031161 133.02008519 71.44711343 128.17675388 71.4727478 123.33340454 C71.51960073 114.15721751 71.55631324 104.98101877 71.58942068 95.80477297 C71.62759614 85.35990483 71.67701822 74.91509949 71.72740483 64.47028422 C71.83082153 42.98023582 71.92005017 21.49014768 72 0 C78.2619848 -0.1273395 84.52363268 -0.21457581 90.78662109 -0.2746582 C92.91467771 -0.29971889 95.04264897 -0.33377691 97.17041016 -0.37719727 C100.23882163 -0.43822089 103.30608995 -0.46629474 106.375 -0.48828125 C107.31802979 -0.51408768 108.26105957 -0.5398941 109.23266602 -0.56648254 C115.73984626 -0.56921207 119.9567788 0.83632062 125 5 C129.57933839 9.93159518 130.14927947 13.77803849 130.15390015 20.2922821 C130.16047353 21.41472068 130.16047353 21.41472068 130.1671797 22.55983478 C130.1805656 25.07464174 130.1867461 27.58941366 130.19287109 30.10424805 C130.20077226 31.90449685 130.20904122 33.70474407 130.21765137 35.50498962 C130.24387095 41.42388395 130.25917947 47.34278534 130.2734375 53.26171875 C130.2787973 55.29935015 130.28417481 57.3369815 130.28956985 59.37461281 C130.31119894 67.85098883 130.32993541 76.32736294 130.34119225 84.80375957 C130.35742969 96.95064153 130.39060229 109.09720352 130.44759309 121.24396485 C130.4862999 129.78505638 130.50582585 138.32606236 130.51111281 146.8672393 C130.51476538 151.96824012 130.52677675 157.06889967 130.55921555 162.16980553 C130.5893089 166.97074583 130.59560344 171.77113857 130.58383179 176.57215309 C130.58361116 178.33134121 130.59190763 180.09055484 130.60948563 181.84965515 C130.76096909 197.88600278 130.76096909 197.88600278 126.42952919 203.58407784 C121.18794104 208.77577374 116.5941949 210.56957043 109.23266602 210.56648254 C107.81812134 210.5277729 107.81812134 210.5277729 106.375 210.48828125 C105.38749756 210.48120651 104.39999512 210.47413177 103.38256836 210.46684265 C100.2542477 210.43903956 97.12777202 210.37632717 94 210.3125 C91.86851558 210.28739895 89.73700288 210.26458896 87.60546875 210.24414062 C82.40302519 210.1892598 77.20164445 210.10577713 72 210 C71.96261719 209.08476562 71.92523438 208.16953125 71.88671875 207.2265625 C71.82097656 206.03804687 71.75523437 204.84953125 71.6875 203.625 C71.62949219 202.44164062 71.57148438 201.25828125 71.51171875 200.0390625 C71.34285156 199.03617188 71.17398438 198.03328125 71 197 C67.53076119 194.68717413 66.07794425 194.57521414 62 195 C57.63960649 198.71445127 57.63960649 198.71445127 58 210 C38.86 210 19.72 210 0 210 C0 140.7 0 71.4 0 0 Z " fill="#B7EA7B" transform="translate(223,191)"/>
<path d="M0 0 C1.26972656 -0.00644531 2.53945313 -0.01289063 3.84765625 -0.01953125 C5.16636719 -0.00019531 6.48507813 0.01914063 7.84375 0.0390625 C9.82181641 0.01005859 9.82181641 0.01005859 11.83984375 -0.01953125 C13.74443359 -0.00986328 13.74443359 -0.00986328 15.6875 0 C16.84443359 0.00563965 18.00136719 0.0112793 19.19335938 0.01708984 C23.26971842 0.85422186 24.77682584 2.45422438 27.34375 5.6640625 C27.90625 8.7265625 27.90625 8.7265625 27.34375 11.6640625 C26.02375 12.9840625 24.70375 14.3040625 23.34375 15.6640625 C16.74375 15.6640625 10.14375 15.6640625 3.34375 15.6640625 C3.34375 106.0840625 3.34375 196.5040625 3.34375 289.6640625 C141.28375 289.6640625 279.22375 289.6640625 421.34375 289.6640625 C421.34375 199.2440625 421.34375 108.8240625 421.34375 15.6640625 C394.45261719 15.69886719 367.56148438 15.73367187 339.85546875 15.76953125 C322.87044213 15.78485072 305.88541974 15.79943403 288.90039062 15.81054688 C279.98217757 15.81642083 271.06396467 15.82248237 262.14575195 15.82885742 C260.4690347 15.83004429 260.4690347 15.83004429 258.75844437 15.83125514 C240.69287815 15.84431661 222.62734048 15.8679755 204.5617912 15.89552089 C186.03296517 15.92353783 167.50415411 15.94023089 148.97530776 15.94632798 C137.53447002 15.95045214 126.09371289 15.96349563 114.65289996 15.9878119 C106.81623161 16.00362332 98.97960516 16.00847332 91.14292201 16.00456663 C86.61602434 16.0026379 82.0892679 16.00567301 77.5623951 16.02167892 C73.42276661 16.03620941 69.28337518 16.03705985 65.1437361 16.02675918 C63.64166907 16.02548491 62.13958763 16.02934844 60.63754924 16.03871205 C58.60445799 16.05065501 56.57127777 16.04250976 54.53817272 16.03320599 C52.84025327 16.03491473 52.84025327 16.03491473 51.10803241 16.03665799 C48.34375 15.6640625 48.34375 15.6640625 46.48369819 14.27575666 C44.98480225 12.15657102 44.91055078 10.7445325 44.90625 8.1640625 C44.88691406 7.390625 44.86757812 6.6171875 44.84765625 5.8203125 C45.34375 3.6640625 45.34375 3.6640625 46.97297817 2.05289209 C50.0698525 0.23870202 52.18900691 0.2880525 55.77219296 0.28653908 C56.41858072 0.28217876 57.06496849 0.27781843 57.73094377 0.27332598 C59.90595924 0.26234119 62.08034455 0.2728062 64.25535583 0.28311157 C65.82679684 0.27965626 67.39823543 0.27489255 68.96966892 0.26892984 C73.29504373 0.25637257 77.6202207 0.26261164 81.94559634 0.27188849 C86.60757408 0.27865941 91.26951713 0.26820746 95.93148804 0.25994873 C105.06740105 0.24658792 114.20324026 0.24949966 123.3391562 0.25818665 C130.7627473 0.26495398 138.18631767 0.26588404 145.60991096 0.2626152 C146.66533802 0.2621555 147.72076508 0.26169581 148.80817478 0.26122218 C150.95207699 0.26026303 153.0959792 0.25929039 155.2398814 0.2583044 C175.35779785 0.24974352 195.47567333 0.25959536 215.59358305 0.2757055 C232.86424842 0.28910737 250.1348533 0.28678302 267.40551758 0.27294922 C287.44849951 0.25690237 307.49144549 0.25056962 327.53443295 0.25978601 C329.67087972 0.26074168 331.80732649 0.26168479 333.94377327 0.2626152 C334.99501577 0.26307803 336.04625827 0.26354086 337.1293566 0.26401771 C344.54548455 0.26661043 351.96158974 0.26223049 359.37771416 0.25517654 C368.41350062 0.2467712 377.44920888 0.24902124 386.48498636 0.26501878 C391.09720926 0.27291481 395.70930167 0.27597047 400.32152367 0.26607132 C404.5412983 0.25715133 408.76082113 0.2620126 412.98057283 0.27800398 C414.50946632 0.28136327 416.03838095 0.27963202 417.56726091 0.27237661 C419.64163391 0.26328545 421.7151386 0.27257773 423.7894659 0.28653908 C424.94278658 0.28702613 426.09610725 0.28751319 427.28437704 0.28801501 C430.70619394 0.70861285 432.59358477 1.61834964 435.34375 3.6640625 C436.57422647 6.12501544 436.47355214 7.73470453 436.48076439 10.48769855 C436.4883762 12.02522391 436.4883762 12.02522391 436.49614179 13.59381038 C436.49663955 14.7285129 436.49713731 15.86321541 436.49765015 17.03230286 C436.5020324 18.23104827 436.50641465 19.42979369 436.5109297 20.66486472 C436.52201159 24.00276742 436.52854748 27.34062314 436.53311086 30.67853749 C436.53906057 34.27441492 436.55067191 37.870275 436.56140137 41.46614075 C436.5859387 50.15505333 436.60055387 58.84397166 436.61346143 67.53290823 C436.6171722 69.98598115 436.62114552 72.4390535 436.6252141 74.89212584 C436.65044792 90.11733961 436.67250637 105.34255424 436.68494225 120.56778431 C436.68787206 124.09540116 436.69083371 127.62301798 436.69384766 131.15063477 C436.69459371 132.02743295 436.69533976 132.90423114 436.69610842 133.80759897 C436.70876748 148.01758029 436.74199724 162.22743663 436.78364949 176.43735949 C436.82603897 191.01799781 436.84963376 205.59857209 436.85486281 220.17927188 C436.85828018 228.36924702 436.87007365 236.55902683 436.90296555 244.74894142 C436.9309262 251.72252238 436.94198301 258.69586796 436.93077008 265.66950063 C436.9255732 269.2287154 436.92853576 272.78743696 436.95323563 276.34658051 C436.97977478 280.20287944 436.96770269 284.05850113 436.95175171 287.91487122 C436.9656338 289.04288157 436.97951588 290.17089192 436.99381864 291.3330844 C436.9832467 292.36592455 436.97267476 293.39876469 436.96178246 294.46290302 C436.96313898 295.35302249 436.96449551 296.24314196 436.96589315 297.16023475 C436.03756176 300.89632329 434.38609837 302.36213896 431.34375 304.6640625 C428.65032272 305.15712275 426.58790633 305.33895658 423.90206909 305.2932682 C423.15829018 305.30053541 422.41451127 305.30780261 421.6481936 305.31529003 C419.14760035 305.33358604 416.64853211 305.31616462 414.14794922 305.29898071 C412.34052685 305.30474011 410.53311033 305.31268001 408.7257061 305.32261693 C403.75260788 305.34353842 398.77998784 305.333151 393.80688763 305.31768584 C388.44619655 305.30639794 383.08558914 305.32382231 377.72491455 305.33758545 C367.22082961 305.35984976 356.71692303 305.35500242 346.21283102 305.34052224 C337.67798489 305.32924257 329.14318884 305.3276936 320.6083374 305.33314133 C319.39485024 305.33390749 318.18136308 305.33467366 316.93110359 305.33546304 C314.4661339 305.33706162 312.00116422 305.33868269 309.53619456 305.340326 C286.40762565 305.35459286 263.27915573 305.33817605 240.15060306 305.31132416 C220.29371182 305.28898457 200.43696672 305.29286443 180.58007812 305.31591797 C157.53578598 305.3426594 134.49158066 305.35321947 111.44727516 305.33785665 C108.99123765 305.33626386 106.53520013 305.33469201 104.0791626 305.33314133 C102.8706608 305.33236995 101.662159 305.33159857 100.41703594 305.33080382 C91.88979887 305.32648185 83.36261675 305.33378407 74.83538818 305.34553909 C64.44729601 305.35954421 54.0593928 305.35580598 43.67132235 305.32913537 C38.36841458 305.31597048 33.06582218 305.31089036 27.76291656 305.32738113 C22.91205776 305.3422383 18.06180776 305.3341626 13.2110045 305.30749337 C11.45267092 305.3018904 9.69428631 305.30478934 7.93598533 305.31687231 C5.55172849 305.33200484 3.1695765 305.31656286 0.78543091 305.2932682 C0.09729191 305.30497403 -0.59084709 305.31667987 -1.29983878 305.32874042 C-4.98034075 305.25650524 -6.61632978 304.69428158 -9.5820297 302.44928586 C-11.84004857 299.41726129 -12.28206323 298.18443273 -12.2854557 294.47128296 C-12.29849444 293.44029291 -12.31153318 292.40930286 -12.32496703 291.34707069 C-12.31381342 290.2211067 -12.30265981 289.09514271 -12.29116821 287.93505859 C-12.29896817 286.7337499 -12.30676812 285.53244122 -12.31480443 284.29472923 C-12.33130186 280.9631183 -12.32536081 277.63291607 -12.30987334 274.30139065 C-12.29856653 270.70757123 -12.31601915 267.11387547 -12.32977295 263.52008057 C-12.35201721 256.4811068 -12.34719899 249.44239945 -12.33270974 242.4034152 C-12.32142213 236.6832075 -12.31988452 230.96307452 -12.32532883 225.24285889 C-12.32609499 224.42902375 -12.32686116 223.61518861 -12.32765054 222.77669179 C-12.32924915 221.1234501 -12.33087022 219.47020842 -12.3325135 217.81696677 C-12.34677447 202.31103672 -12.33037284 186.80525442 -12.30351166 171.29934859 C-12.28117254 157.99180944 -12.28505257 144.68448835 -12.30810547 131.37695312 C-12.33485736 115.92687959 -12.34540114 100.47693558 -12.33004415 85.02684212 C-12.32845139 83.37965014 -12.32687954 81.73245813 -12.32532883 80.08526611 C-12.32455745 79.27479619 -12.32378607 78.46432627 -12.32299132 77.62929666 C-12.31867247 71.91532877 -12.32596482 66.20144297 -12.33772659 60.48748779 C-12.35174338 53.52491539 -12.34796919 46.56262485 -12.32132287 39.60008478 C-12.3081733 36.04695527 -12.303051 32.49429587 -12.31956863 28.94116974 C-12.33719413 25.09153556 -12.31616325 21.24267277 -12.29116821 17.39306641 C-12.30232182 16.26710241 -12.31347543 15.14113842 -12.32496703 13.98105431 C-12.22966611 6.44548516 -12.22966611 6.44548516 -9.31346703 2.47143555 C-5.99702036 0.21567087 -3.99386605 0.01946871 0 0 Z " fill="#020101" transform="translate(43.65625,143.3359375)"/>
<path d="M0 0 C122.43 0 244.86 0 371 0 C371 90.42 371 180.84 371 274 C233.06 274 95.12 274 -47 274 C-47 268.39 -47 262.78 -47 257 C-14.15787345 256.06020615 18.65691673 255.87591965 51.51115632 255.93153763 C57.65155758 255.94126591 63.79196397 255.94427857 69.93237134 255.94776857 C82.06128254 255.95474717 94.19018675 255.96548432 106.3190918 255.97949219 C107.03703663 255.98032 107.75498147 255.98114781 108.49468222 255.98200071 C112.86749079 255.98706293 117.24029925 255.99221621 121.61310768 255.99739647 C128.24361785 256.00524534 134.87412813 256.01298025 141.50463867 256.02050781 C142.23288291 256.02133594 142.96112716 256.02216407 143.71143941 256.02301729 C155.85484748 256.03670218 167.99825571 256.04645532 180.14166945 256.05341816 C186.92477927 256.0574822 193.70787463 256.06370642 200.49097633 256.07516479 C206.83371728 256.08582666 213.1764464 256.09204163 219.51919556 256.0948143 C221.84321487 256.09668695 224.16723352 256.10028918 226.49124718 256.10574722 C229.66127991 256.11295982 232.83125745 256.11400121 236.001297 256.11352539 C236.91973996 256.11712035 237.83818293 256.12071531 238.7844575 256.12441921 C243.63215628 256.1166193 248.22005556 255.81947495 253 255 C253 255.33 253 255.66 253 256 C266.53 256 280.06 256 294 256 C293.01 254.68 292.02 253.36 291 252 C290.5625 249 290.5625 249 291 246 C293.03424866 243.40975696 294.22801092 242.15284979 297.49742126 241.50552368 C298.43276199 241.50837372 299.36810272 241.51122375 300.33178711 241.51416016 C301.39646713 241.5080069 302.46114716 241.50185364 303.55809021 241.49551392 C304.70294388 241.50988495 305.84779755 241.52425598 307.02734375 241.5390625 C308.20841202 241.53997894 309.38948029 241.54089539 310.6063385 241.5418396 C313.10372943 241.54788083 315.60111294 241.56364227 318.09838867 241.58837891 C321.91938008 241.62482715 325.73939998 241.62939863 329.56054688 241.62890625 C331.98698754 241.63873967 334.41342164 241.65039764 336.83984375 241.6640625 C337.98267319 241.66628815 339.12550262 241.66851379 340.30296326 241.67080688 C341.37079544 241.68356659 342.43862762 241.69632629 343.53881836 241.70947266 C344.47495468 241.71709625 345.411091 241.72471985 346.37559509 241.73257446 C349 242 349 242 354 244 C354 236.41 354 228.82 354 221 C353.34 221 352.68 221 352 221 C352 221.66 352 222.32 352 223 C348.84041094 224.84662949 346.49371755 225.26333276 342.85180664 225.30639648 C341.82716812 225.32238388 340.8025296 225.33837128 339.74684143 225.35484314 C338.64573532 225.36020584 337.54462921 225.36556854 336.41015625 225.37109375 C335.27348007 225.38012222 334.13680389 225.3891507 332.96568298 225.39845276 C330.56251663 225.41295568 328.15931079 225.42184209 325.75610352 225.42553711 C322.07956568 225.43744473 318.40469985 225.48664277 314.72851562 225.53710938 C312.39323736 225.54657229 310.05794879 225.55380795 307.72265625 225.55859375 C306.62357437 225.57812607 305.52449249 225.59765839 304.3921051 225.61778259 C296.78150592 225.57277814 296.78150592 225.57277814 292.80249023 222.65649414 C290.59446076 219.40231986 290.26193063 217.85436229 291 214 C293.057402 211.38636512 294.24654905 210.14815886 297.54884338 209.49879456 C298.98755043 209.4985453 298.98755043 209.4985453 300.45532227 209.49829102 C301.54647842 209.48891006 302.63763458 209.47952911 303.76185608 209.46986389 C305.52135841 209.48671486 305.52135841 209.48671486 307.31640625 209.50390625 C308.52441391 209.50245102 309.73242157 209.50099579 310.97703552 209.49949646 C313.52988091 209.5011561 316.08273623 209.51272445 318.63549805 209.53344727 C322.55104883 209.56241528 326.46524745 209.55405372 330.38085938 209.54101562 C332.8593816 209.5472524 335.33789955 209.55564286 337.81640625 209.56640625 C339.57894493 209.56200279 339.57894493 209.56200279 341.37709045 209.55751038 C342.46509445 209.57019455 343.55309845 209.58287872 344.67407227 209.59594727 C345.6324147 209.60135025 346.59075714 209.60675323 347.57814026 209.61231995 C350 210 350 210 353 213 C353.33 205.08 353.66 197.16 354 189 C353.34 189 352.68 189 352 189 C352 189.66 352 190.32 352 191 C348.84041094 192.84662949 346.49371755 193.26333276 342.85180664 193.30639648 C341.82716812 193.32238388 340.8025296 193.33837128 339.74684143 193.35484314 C338.64573532 193.36020584 337.54462921 193.36556854 336.41015625 193.37109375 C335.27348007 193.38012222 334.13680389 193.3891507 332.96568298 193.39845276 C330.56251663 193.41295568 328.15931079 193.42184209 325.75610352 193.42553711 C322.07956568 193.43744473 318.40469985 193.48664277 314.72851562 193.53710938 C312.39323736 193.54657229 310.05794879 193.55380795 307.72265625 193.55859375 C306.62357437 193.57812607 305.52449249 193.59765839 304.3921051 193.61778259 C296.78150592 193.57277814 296.78150592 193.57277814 292.80249023 190.65649414 C290.59446076 187.40231986 290.26193063 185.85436229 291 182 C293.057402 179.38636512 294.24654905 178.14815886 297.54884338 177.49879456 C298.98755043 177.4985453 298.98755043 177.4985453 300.45532227 177.49829102 C301.54647842 177.48891006 302.63763458 177.47952911 303.76185608 177.46986389 C305.52135841 177.48671486 305.52135841 177.48671486 307.31640625 177.50390625 C308.52441391 177.50245102 309.73242157 177.50099579 310.97703552 177.49949646 C313.52988091 177.5011561 316.08273623 177.51272445 318.63549805 177.53344727 C322.55104883 177.56241528 326.46524745 177.55405372 330.38085938 177.54101562 C332.8593816 177.5472524 335.33789955 177.55564286 337.81640625 177.56640625 C339.57894493 177.56200279 339.57894493 177.56200279 341.37709045 177.55751038 C342.46509445 177.57019455 343.55309845 177.58287872 344.67407227 177.59594727 C345.6324147 177.60135025 346.59075714 177.60675323 347.57814026 177.61231995 C350 178 350 178 353 181 C353 167.14 353 153.28 353 139 C351.35 141.97 349.7 144.94 348 148 C342.31686334 154.5409686 335.70346814 159.57828902 326.77734375 160.23828125 C316.14398368 160.44380906 307.57060411 159.21157837 299.53125 151.703125 C292.31983409 143.68226445 290.4711182 135.40128987 290.6171875 124.76953125 C291.16950617 119.3308831 292.96213464 115.48085141 296 111 C297.0828125 109.39125 297.0828125 109.39125 298.1875 107.75 C305.95078942 100.15922812 313.77212159 97.66083233 324.37841797 97.61499023 C332.83757787 97.78073315 338.58951682 100.55776165 344.8125 106.25 C348 110 348 110 353 119 C353 99.53 353 80.06 353 60 C349.535 64.95 349.535 64.95 346 70 C338.38898366 77.73377467 332.37932466 80.07559742 321.5625 80.5 C314.57726564 80.35301611 309.75033486 78.91282184 304 75 C303.41734375 74.61585938 302.8346875 74.23171875 302.234375 73.8359375 C296.3032973 69.43256163 292.94719198 62.97743793 291 56 C289.78824982 45.72342639 290.96704956 37.52314701 297 29 C302.68800202 22.53955326 310.30757828 17.82305993 318.9375 16.76171875 C327.57171987 16.45101766 335.87219995 18.78473943 342.5 24.4375 C347.16752142 28.97939455 350.04916248 33.09832496 353 39 C353.33 26.46 353.66 13.92 354 1 C237.18 1 120.36 1 0 1 C0 0.67 0 0.34 0 0 Z " fill="#4D3C4C" transform="translate(94,159)"/>
<path d="M0 0 C1.17443347 -0.00865383 1.17443347 -0.00865383 2.37259287 -0.01748249 C5.01244346 -0.03078262 7.65078799 -0.00823578 10.29056168 0.01396656 C12.19555051 0.01178737 14.10053789 0.00741167 16.00551724 0.00102073 C21.2527961 -0.01019215 26.49956744 0.00988519 31.74678159 0.03491104 C37.40047932 0.05645005 43.0541471 0.04920026 48.7078743 0.04539967 C58.507466 0.04277452 68.30689158 0.05849731 78.1064415 0.08658886 C92.2750175 0.12717835 106.44351296 0.14024143 120.6121408 0.14652882 C143.59828168 0.15747915 166.58431775 0.19073051 189.57040787 0.23804188 C211.90275995 0.28395467 234.23508836 0.31937731 256.56747818 0.34058094 C257.25571185 0.34123857 257.94394552 0.3418962 258.65303476 0.34257376 C265.56448347 0.34916629 272.47593236 0.35554537 279.38738141 0.36176806 C337.36104855 0.41398433 395.33462107 0.50260106 453.30820084 0.61523914 C453.30820084 7.21523914 453.30820084 13.81523914 453.30820084 20.61523914 C451.32820084 19.62523914 449.34820084 18.63523914 447.30820084 17.61523914 C444.0806867 17.1700054 444.0806867 17.1700054 440.63086891 17.23492241 C439.98187386 17.23026249 439.3328788 17.22560257 438.66421723 17.22080144 C436.49238982 17.20886302 434.32118934 17.21824187 432.14935684 17.22755909 C430.57547647 17.22338568 429.00159911 17.21790812 427.42772734 17.21123928 C423.10494634 17.1967674 418.78235571 17.20103478 414.45956421 17.20840609 C409.79695462 17.21313102 405.13438663 17.20063406 400.47179031 17.19038868 C391.33916544 17.17318345 382.20660932 17.17236406 373.07397245 17.17760158 C365.65375681 17.18164047 358.23356152 17.18020309 350.81334686 17.17485332 C349.75790206 17.1741049 348.70245726 17.17335648 347.61502928 17.17258538 C345.47104441 17.17105394 343.32705953 17.16951559 341.18307467 17.16797041 C321.0737664 17.15423972 300.96449702 17.15968759 280.85518964 17.17115562 C262.44480063 17.1810938 244.03451204 17.16813824 225.62413852 17.14422143 C206.73011144 17.11986072 187.8361312 17.11021477 168.94208872 17.11687416 C158.33048813 17.12037246 147.71896485 17.11809388 137.1073761 17.10062313 C128.07635149 17.08593919 119.04545863 17.08521591 110.01443671 17.10269404 C105.40431029 17.11123697 100.79441963 17.11327364 96.18430519 17.09804249 C91.96768308 17.08428338 87.75150066 17.08884424 83.53490455 17.10828172 C82.00608743 17.11206914 80.47723581 17.10904162 78.94844918 17.09867007 C76.87637961 17.08560763 74.80585208 17.09698399 72.73385048 17.11466789 C71.00492611 17.1148289 71.00492611 17.1148289 69.24107397 17.11499316 C65.65387964 17.72684355 64.50321303 18.76562417 62.30820084 21.61523914 C61.81320084 23.10023914 61.81320084 23.10023914 61.30820084 24.61523914 C55.69820084 24.61523914 50.08820084 24.61523914 44.30820084 24.61523914 C43.31820084 22.63523914 42.32820084 20.65523914 41.30820084 18.61523914 C37.09354509 16.50791127 31.62331885 17.34736577 26.98691177 17.32007313 C24.94749091 17.30285976 22.90969201 17.25897079 20.87070084 17.21484852 C19.58421646 17.20646961 18.29773209 17.19809071 16.97226334 17.18945789 C15.79099869 17.17487537 14.60973404 17.16029285 13.39267349 17.14526844 C9.60670242 17.72212409 8.67560216 18.6696982 6.30820084 21.61523914 C5.71552064 24.02600205 5.71552064 24.02600205 5.80762959 26.68497086 C5.79781529 27.71396985 5.788001 28.74296885 5.77788931 29.80314964 C5.78749432 30.93202648 5.79709932 32.06090331 5.80699539 33.22398853 C5.801461 34.4244428 5.7959266 35.62489706 5.79022449 36.86172873 C5.77895187 40.19542676 5.78566555 43.52821638 5.79996121 46.86184537 C5.81105269 50.45633849 5.79913443 54.05076452 5.79011917 57.64525318 C5.77617176 64.68768338 5.78375409 71.72993451 5.79879475 78.7723562 C5.81563959 86.97111269 5.81244648 95.16982437 5.80870067 103.36859281 C5.80281925 117.99666154 5.81700421 132.62464425 5.8416481 147.25269032 C5.86556531 161.45096531 5.87265443 175.64912535 5.86215591 189.84741688 C5.8507488 205.3022256 5.84881443 220.75698112 5.86325401 236.21178919 C5.86477987 237.85955846 5.86630023 239.50732773 5.86781502 241.15509701 C5.86857283 241.96586191 5.86933065 242.77662682 5.87011142 243.61196036 C5.87485619 249.3283978 5.87300142 255.04481151 5.86874962 260.76124859 C5.86382486 267.72744483 5.86979862 274.69353234 5.88964391 281.65970366 C5.89952166 285.21474592 5.90461595 288.76962254 5.8967514 292.32467365 C5.88840487 296.17638996 5.90326356 300.02781473 5.92052078 303.87950611 C5.91451074 305.00615222 5.90850069 306.13279834 5.90230852 307.29358524 C5.91074846 308.32519199 5.91918841 309.35679873 5.9278841 310.41966629 C5.92891323 311.30870161 5.92994236 312.19773694 5.93100268 313.11371273 C6.23617264 316.21465297 6.23617264 316.21465297 9.30820084 320.61523914 C2.37820084 320.61523914 -4.55179916 320.61523914 -11.69179916 320.61523914 C-11.78300723 280.57123193 -11.85381598 240.52724101 -11.89606048 200.48315065 C-11.90106344 195.75789287 -11.90624071 191.03263529 -11.91152573 186.30737782 C-11.91257497 185.36664571 -11.91362421 184.42591361 -11.91470525 183.45667448 C-11.9321207 168.2151842 -11.96366466 152.97375414 -12.00041035 137.7322996 C-12.03778805 122.09855766 -12.0600283 106.46484729 -12.06815314 90.8310625 C-12.0736475 81.18055334 -12.09101429 71.53021438 -12.12346503 61.87975761 C-12.1445738 55.26624 -12.15100748 48.65281066 -12.14580467 42.0392618 C-12.1432372 38.22089813 -12.14723218 34.40283229 -12.16862106 30.58452129 C-12.19162447 26.44786134 -12.18377192 22.311839 -12.17281723 18.17512989 C-12.1844686 16.96404538 -12.19611996 15.75296088 -12.2081244 14.50517684 C-12.20016021 13.39795199 -12.19219601 12.29072714 -12.18399048 11.14995003 C-12.18550936 10.1949534 -12.18702824 9.23995677 -12.18859315 8.25602084 C-10.83776778 1.07550939 -6.60004001 -0.11890351 0 0 Z " fill="#E1996B" transform="translate(26.69179916381836,127.38476085662842)"/>
<path d="M0 0 C6.2619848 -0.1273395 12.52363268 -0.21457581 18.78662109 -0.2746582 C20.91467771 -0.29971889 23.04264897 -0.33377691 25.17041016 -0.37719727 C28.23882163 -0.43822089 31.30608995 -0.46629474 34.375 -0.48828125 C35.31802979 -0.51408768 36.26105957 -0.5398941 37.23266602 -0.56648254 C43.73984626 -0.56921207 47.9567788 0.83632062 53 5 C57.57933839 9.93159518 58.14927947 13.77803849 58.15390015 20.2922821 C58.16047353 21.41472068 58.16047353 21.41472068 58.1671797 22.55983478 C58.1805656 25.07464174 58.1867461 27.58941366 58.19287109 30.10424805 C58.20077226 31.90449685 58.20904122 33.70474407 58.21765137 35.50498962 C58.24387095 41.42388395 58.25917947 47.34278534 58.2734375 53.26171875 C58.2787973 55.29935015 58.28417481 57.3369815 58.28956985 59.37461281 C58.31119894 67.85098883 58.32993541 76.32736294 58.34119225 84.80375957 C58.35742969 96.95064153 58.39060229 109.09720352 58.44759309 121.24396485 C58.4862999 129.78505638 58.50582585 138.32606236 58.51111281 146.8672393 C58.51476538 151.96824012 58.52677675 157.06889967 58.55921555 162.16980553 C58.5893089 166.97074583 58.59560344 171.77113857 58.58383179 176.57215309 C58.58361116 178.33134121 58.59190763 180.09055484 58.60948563 181.84965515 C58.76096909 197.88600278 58.76096909 197.88600278 54.42952919 203.58407784 C49.18794104 208.77577374 44.5941949 210.56957043 37.23266602 210.56648254 C36.28963623 210.54067612 35.34660645 210.51486969 34.375 210.48828125 C33.38749756 210.48120651 32.39999512 210.47413177 31.38256836 210.46684265 C28.2542477 210.43903956 25.12777202 210.37632717 22 210.3125 C19.86851558 210.28739895 17.73700288 210.26458896 15.60546875 210.24414062 C10.40302519 210.1892598 5.20164445 210.10577713 0 210 C-0.00257813 209.09636719 -0.00515625 208.19273437 -0.0078125 207.26171875 C-0.12308898 203.74578602 -0.30716187 200.45111824 -1 197 C-3.84100775 194.53025527 -3.84100775 194.53025527 -7 194 C-7.16225719 191.24763726 -7.2809328 188.50482524 -7.375 185.75 C-7.42527344 184.97269531 -7.47554688 184.19539062 -7.52734375 183.39453125 C-7.55634766 182.26337891 -7.55634766 182.26337891 -7.5859375 181.109375 C-7.6173584 180.41811523 -7.6487793 179.72685547 -7.68115234 179.01464844 C-7 177 -7 177 -4.00489616 175.31463242 C-0.71191194 173.28148589 -0.71191194 173.28148589 -0.24609566 169.80600357 C-0.24425207 168.53392925 -0.24240849 167.26185493 -0.24050903 165.95123291 C-0.22669388 164.88642452 -0.22669388 164.88642452 -0.21259964 163.80010486 C-0.18900082 161.42099691 -0.20813185 159.04416058 -0.22705078 156.66503906 C-0.21888109 154.960023 -0.20807932 153.2550178 -0.19483948 151.55003357 C-0.16635972 146.92002822 -0.17476956 142.29073279 -0.18970728 137.66069126 C-0.19907443 132.82260742 -0.17464856 127.98469835 -0.15377808 123.14666748 C-0.11940406 113.98462399 -0.11550541 104.82282999 -0.12250316 95.66073489 C-0.12898974 85.23029302 -0.10158243 74.80002686 -0.07130075 64.36963701 C-0.00976844 42.91307196 0.00911097 21.45664368 0 0 Z " fill="#79D6ED" transform="translate(295,191)"/>
<path d="M0 0 C19.14 0 38.28 0 58 0 C58 69.3 58 138.6 58 210 C38.86 210 19.72 210 0 210 C0 140.7 0 71.4 0 0 Z " fill="#FFE077" transform="translate(151,191)"/>
<path d="M0 0 C0 69.3 0 138.6 0 210 C-46.79 210 -46.79 210 -52.64453125 204.4375 C-56.95100891 199.13721981 -57.14892282 195.227181 -57.14717102 188.57400513 C-57.15084771 187.82344719 -57.1545244 187.07288925 -57.1583125 186.29958713 C-57.16933047 183.7832139 -57.17318992 181.266882 -57.17700195 178.75048828 C-57.18326788 176.94684722 -57.18991479 175.14320745 -57.19691467 173.33956909 C-57.21793675 167.41649268 -57.22831323 161.49341605 -57.23828125 155.5703125 C-57.24232907 153.53108583 -57.246446 151.4918593 -57.25063133 149.4526329 C-57.2696765 139.87489322 -57.28391068 130.29716122 -57.2922433 120.71940625 C-57.30202286 109.66117701 -57.32836399 98.60314756 -57.36874419 87.54498875 C-57.39888489 78.99796188 -57.41371011 70.45099237 -57.41702431 61.90391338 C-57.41937654 56.79857509 -57.42835989 51.69345041 -57.45348549 46.5881691 C-57.4767363 41.78645443 -57.4810115 36.9850945 -57.47072411 32.18333817 C-57.47022796 30.42170533 -57.47657168 28.66005521 -57.49028015 26.89847565 C-57.50795959 24.4918785 -57.50091335 22.08656003 -57.48774719 19.67996216 C-57.49871644 18.9842332 -57.50968568 18.28850424 -57.52098733 17.57169259 C-57.44567763 11.86328205 -55.31127572 8.37908821 -51.40234375 4.35546875 C-36.57181054 -7.46940973 -22.97229736 0 0 0 Z " fill="#FF7D91" transform="translate(136,191)"/>
<path d="M0 0 C45 0 45 0 53 5 C57.57933839 9.93159518 58.14927947 13.77803849 58.15390015 20.2922821 C58.16047353 21.41472068 58.16047353 21.41472068 58.1671797 22.55983478 C58.1805656 25.07464174 58.1867461 27.58941366 58.19287109 30.10424805 C58.20077226 31.90449685 58.20904122 33.70474407 58.21765137 35.50498962 C58.24387095 41.42388395 58.25917947 47.34278534 58.2734375 53.26171875 C58.2787973 55.29935015 58.28417481 57.3369815 58.28956985 59.37461281 C58.31119894 67.85098883 58.32993541 76.32736294 58.34119225 84.80375957 C58.35742969 96.95064153 58.39060229 109.09720352 58.44759309 121.24396485 C58.4862999 129.78505638 58.50582585 138.32606236 58.51111281 146.8672393 C58.51476538 151.96824012 58.52677675 157.06889967 58.55921555 162.16980553 C58.5893089 166.97074583 58.59560344 171.77113857 58.58383179 176.57215309 C58.58361116 178.33134121 58.59190763 180.09055484 58.60948563 181.84965515 C58.76096909 197.88600278 58.76096909 197.88600278 54.42952919 203.58407784 C49.18794104 208.77577374 44.5941949 210.56957043 37.23266602 210.56648254 C36.28963623 210.54067612 35.34660645 210.51486969 34.375 210.48828125 C33.38749756 210.48120651 32.39999512 210.47413177 31.38256836 210.46684265 C28.2542477 210.43903956 25.12777202 210.37632717 22 210.3125 C19.86851558 210.28739895 17.73700288 210.26458896 15.60546875 210.24414062 C10.40302519 210.1892598 5.20164445 210.10577713 0 210 C-0.03665771 209.08839111 -0.07331543 208.17678223 -0.11108398 207.23754883 C-0.17626221 206.05185303 -0.24144043 204.86615723 -0.30859375 203.64453125 C-0.36587646 202.46479736 -0.42315918 201.28506348 -0.48217773 200.06958008 C-0.69234784 196.68196958 -0.69234784 196.68196958 -4.0625 194.6875 C-5.5165625 194.3471875 -5.5165625 194.3471875 -7 194 C-7 193.67 -7 193.34 -7 193 C-6.35562988 192.9906543 -5.71125977 192.98130859 -5.04736328 192.97167969 C-2.07252233 192.91734956 0.90084977 192.83383021 3.875 192.75 C4.88820313 192.73582031 5.90140625 192.72164062 6.9453125 192.70703125 C16.80413653 192.3910433 24.9382281 189.90114093 32.2421875 183.0703125 C37.06850603 177.38598178 40.10495229 170.33871299 40.16062927 162.89857483 C40.17569771 161.31550537 40.17569771 161.31550537 40.19107056 159.70045471 C40.19690155 158.54254929 40.20273254 157.38464386 40.20874023 156.19165039 C40.21852402 154.97178436 40.2283078 153.75191833 40.23838806 152.49508667 C40.26837259 148.44595291 40.29004844 144.39685454 40.30859375 140.34765625 C40.31189107 139.65737233 40.31518839 138.96708841 40.31858563 138.25588679 C40.34938276 131.73698355 40.37607364 125.21807551 40.39300442 118.69912052 C40.41486202 110.38222972 40.45672236 102.06598852 40.52644199 93.74935728 C40.57386948 87.89098755 40.59796334 82.03279181 40.6052013 76.17423624 C40.6101324 72.68149227 40.62496466 69.1894805 40.6649456 65.6969471 C40.70909238 61.78874509 40.70487376 57.88135914 40.69702148 53.97290039 C40.71702209 52.83321304 40.73702271 51.6935257 40.75762939 50.51930237 C40.67610817 41.42991894 38.08712025 33.707222 32.05521297 26.76014805 C23.054457 17.9840849 13.54763585 17.83650906 1 17 C1 67.82 1 118.64 1 171 C0.67 171 0.34 171 0 171 C0 114.57 0 58.14 0 0 Z " fill="#49BCE6" transform="translate(295,191)"/>
<path d="M0 0 C0.88068649 0.00007553 1.76137299 0.00015106 2.66874695 0.00022888 C3.61570938 0.00539017 4.56267181 0.01055145 5.53833008 0.01586914 C6.51071121 0.01728409 7.48309235 0.01869904 8.48493958 0.02015686 C11.59261137 0.02575722 14.70021129 0.03830977 17.80786133 0.05102539 C19.91398008 0.05604034 22.02009996 0.06060326 24.1262207 0.06469727 C29.29096197 0.07572677 34.45564946 0.09299164 39.62036133 0.11352539 C39.62036133 5.72352539 39.62036133 11.33352539 39.62036133 17.11352539 C38.36481445 17.18829102 37.10926758 17.26305664 35.81567383 17.34008789 C24.17606711 18.18983847 15.58372609 19.61645082 7.24536133 28.42602539 C1.19897889 36.474688 0.0281112 43.76744879 0.07104492 53.69482422 C0.06082306 54.92531998 0.0506012 56.15581573 0.04006958 57.42359924 C0.01714433 60.77533344 0.012112 64.12607357 0.01719618 67.47781587 C0.01934832 70.28807884 0.0095364 73.09825242 -0.00001466 75.90849608 C-0.0221447 82.54600013 -0.02311478 89.18327777 -0.01098633 95.82080078 C0.00108233 102.6392232 -0.02351299 109.45681907 -0.06612647 116.27510053 C-0.10150582 122.15487941 -0.11333806 128.03439697 -0.10685098 133.91427821 C-0.10324732 137.41467246 -0.10827198 140.91447734 -0.13628006 144.41477394 C-0.16640074 148.32485234 -0.14737029 152.23390107 -0.12426758 156.14404297 C-0.13955505 157.28365479 -0.15484253 158.4232666 -0.17059326 159.59741211 C-0.05286796 168.66475351 2.51622507 176.46041737 8.59596825 183.35339069 C17.85887062 192.22922349 27.3684923 192.70169786 39.62036133 193.11352539 C39.62036133 198.72352539 39.62036133 204.33352539 39.62036133 210.11352539 C33.3215796 210.21259879 27.02325411 210.28509158 20.72387695 210.33325195 C18.58219499 210.35333427 16.44056763 210.38060577 14.29907227 210.4152832 C11.21592717 210.46394937 8.1335087 210.48652829 5.05004883 210.50415039 C4.09669647 210.52479553 3.14334412 210.54544067 2.16110229 210.56671143 C-4.70438026 210.56901489 -8.01101767 209.31411542 -13.02416992 204.55102539 C-17.33064758 199.2507452 -17.5285615 195.34070639 -17.52680969 188.68753052 C-17.53048638 187.93697258 -17.53416307 187.18641464 -17.53795117 186.41311252 C-17.54896915 183.8967393 -17.5528286 181.38040739 -17.55664062 178.86401367 C-17.56290655 177.06037261 -17.56955347 175.25673284 -17.57655334 173.45309448 C-17.59757542 167.53001807 -17.6079519 161.60694144 -17.61791992 155.68383789 C-17.62196774 153.64461122 -17.62608467 151.60538469 -17.63027 149.56615829 C-17.64931518 139.98841861 -17.66354936 130.41068661 -17.67188197 120.83293164 C-17.68166154 109.7747024 -17.70800266 98.71667296 -17.74838287 87.65851414 C-17.77852356 79.11148727 -17.79334879 70.56451776 -17.79666299 62.01743877 C-17.79901521 56.91210048 -17.80799856 51.8069758 -17.83312416 46.70169449 C-17.85637497 41.89997982 -17.86065017 37.09861989 -17.85036278 32.29686356 C-17.84986663 30.53523073 -17.85621035 28.7735806 -17.86991882 27.01200104 C-17.88759826 24.60540389 -17.88055202 22.20008542 -17.86738586 19.79348755 C-17.87835511 19.09775859 -17.88932436 18.40202963 -17.900626 17.68521798 C-17.8253163 11.97680744 -15.69091439 8.4926136 -11.78198242 4.46899414 C-7.78215281 1.27979666 -5.07258675 -0.01453463 0 0 Z " fill="#FC5E78" transform="translate(96.379638671875,190.886474609375)"/>
<path d="M0 0 C7.34489028 5.03990845 13.53728148 12.01615151 15.6875 20.8125 C16.64221738 30.55061729 15.89515506 38.55137446 10.01171875 46.78125 C3.78967267 54.08866163 -2.60503671 58.47335596 -12.3203125 59.2734375 C-20.6973021 59.49705324 -26.90421247 58.82833663 -34 54 C-34.58265625 53.61585938 -35.1653125 53.23171875 -35.765625 52.8359375 C-41.6967027 48.43256163 -45.05280802 41.97743793 -47 35 C-48.21175018 24.72342639 -47.03295044 16.52314701 -41 8 C-29.83900651 -4.67668396 -15.08309817 -7.01825792 0 0 Z " fill="#010101" transform="translate(432,180)"/>
<path d="M0 0 C8.02827484 4.86603416 14.69056162 12.14677673 16.99609375 21.44140625 C18.39398188 30.65017444 17.21716787 39.11495114 11.984375 46.91796875 C7.15418833 52.9791496 1.22615415 58.63319536 -6.625 59.9375 C-17.55280884 60.90532163 -26.6472227 60.07666807 -35.4375 53.1875 C-41.43138016 47.58944211 -45.13288329 40.59965835 -45.99609375 32.421875 C-46.14657833 23.95933041 -45.41022446 17.99570608 -40.625 10.9375 C-39.903125 9.865 -39.18125 8.7925 -38.4375 7.6875 C-28.54553227 -1.98464622 -12.96295854 -6.1108228 0 0 Z " fill="#010101" transform="translate(430.625,259.0625)"/>
<path d="M0 0 C19.14 0 38.28 0 58 0 C58 69.3 58 138.6 58 210 C38.86 210 19.72 210 0 210 C0 140.7 0 71.4 0 0 Z M1 17 C1 80.36 1 143.72 1 209 C19.48 209 37.96 209 57 209 C57 145.64 57 82.28 57 17 C38.52 17 20.04 17 1 17 Z " fill="#D9B351" transform="translate(151,191)"/>
<path d="M0 0 C19.14 0 38.28 0 58 0 C58 56.43 58 112.86 58 171 C57.67 171 57.34 171 57 171 C57 114.9 57 58.8 57 1 C38.52 1 20.04 1 1 1 C1 64.36 1 127.72 1 193 C22.12 193 43.24 193 65 193 C64.01 193.66 63.02 194.32 62 195 C57.63960649 198.71445127 57.63960649 198.71445127 58 210 C38.86 210 19.72 210 0 210 C0 140.7 0 71.4 0 0 Z " fill="#87BE6A" transform="translate(223,191)"/>
<path d="M0 0 C1.59702003 -0.0237545 1.59702003 -0.0237545 3.2263031 -0.04798889 C4.9435836 -0.04054909 4.9435836 -0.04054909 6.69555664 -0.03295898 C7.87662491 -0.03915756 9.05769318 -0.04535614 10.27455139 -0.05174255 C12.77189306 -0.0588455 15.26928203 -0.05565854 17.76660156 -0.04296875 C21.588208 -0.02911619 25.40736067 -0.06315607 29.22875977 -0.10131836 C31.65519266 -0.10226965 34.08162861 -0.10041018 36.50805664 -0.09545898 C37.65088608 -0.10871719 38.79371552 -0.1219754 39.97117615 -0.13563538 C47.85651477 -0.04308541 47.85651477 -0.04308541 51.92431641 2.84619141 C53.66821289 5.53344727 53.66821289 5.53344727 53.73071289 9.15844727 C52.54827309 12.91443252 51.97303605 13.61098817 48.66821289 15.53344727 C46.20875549 15.92785645 46.20875549 15.92785645 43.42822266 15.95336914 C42.38356339 15.96928101 41.33890411 15.98519287 40.2625885 16.00158691 C38.57811867 16.00188904 38.57811867 16.00188904 36.85961914 16.00219727 C35.12131081 16.01361755 35.12131081 16.01361755 33.34788513 16.02526855 C30.89763544 16.03607173 28.44733969 16.0389218 25.99707031 16.03442383 C22.24799824 16.03345175 18.5009737 16.07507008 14.75219727 16.11938477 C12.37134216 16.12459186 9.99047994 16.12727996 7.60961914 16.12719727 C6.48866348 16.14359253 5.36770782 16.15998779 4.21278381 16.17687988 C-3.54527005 16.10798204 -3.54527005 16.10798204 -7.54296875 13.18774414 C-9.73563833 9.93420194 -10.06825863 8.37946522 -9.33178711 4.53344727 C-6.44800656 0.88999737 -4.60401897 0.0305112 0 0 Z " fill="#010101" transform="translate(394.331787109375,400.466552734375)"/>
<path d="M0 0 C1.08792847 -0.01583633 2.17585693 -0.03167267 3.29675293 -0.04798889 C4.46661743 -0.04302902 5.63648193 -0.03806915 6.84179688 -0.03295898 C8.65025085 -0.04225685 8.65025085 -0.04225685 10.49523926 -0.05174255 C13.04385571 -0.05884541 15.59251852 -0.05565872 18.14111328 -0.04296875 C22.04611336 -0.02910398 25.94871803 -0.06317115 29.85351562 -0.10131836 C32.32877663 -0.10226952 34.80404064 -0.1004109 37.27929688 -0.09545898 C38.44916138 -0.10871719 39.61902588 -0.1219754 40.82434082 -0.13563538 C48.87915507 -0.04284262 48.87915507 -0.04284262 52.33203125 2.87744141 C53.91067868 6.29041943 53.71793908 7.98411116 52.56054688 11.53344727 C50.97987793 13.52646463 49.82967986 14.39888077 47.56054688 15.53344727 C45.92297861 15.6490015 44.28087852 15.70297306 42.6394043 15.72631836 C41.10221992 15.75041275 41.10221992 15.75041275 39.53398132 15.7749939 C34.84517022 15.81939169 30.15650136 15.86050635 25.4675293 15.88354492 C22.99314981 15.90011116 20.51881831 15.92740959 18.04467773 15.96557617 C14.48070398 16.02028577 10.91785251 16.0422107 7.35351562 16.05688477 C6.24815964 16.07955414 5.14280365 16.10222351 4.00395203 16.12557983 C-3.6585468 16.10446455 -3.6585468 16.10446455 -7.64135742 13.19213867 C-9.84329052 9.93632721 -10.17718362 8.38603985 -9.43945312 4.53344727 C-6.52994881 0.8429054 -4.65045138 0.03014907 0 0 Z " fill="#020202" transform="translate(394.439453125,336.466552734375)"/>
<path d="M0 0 C18.48 0 36.96 0 56 0 C56 5.28 56 10.56 56 16 C37.52 16 19.04 16 0 16 C0 10.72 0 5.44 0 0 Z " fill="#FFD05B" transform="translate(152,384)"/>
<path d="M0 0 C1.08792847 -0.01583633 2.17585693 -0.03167267 3.29675293 -0.04798889 C4.46661743 -0.04302902 5.63648193 -0.03806915 6.84179688 -0.03295898 C8.65025085 -0.04225685 8.65025085 -0.04225685 10.49523926 -0.05174255 C13.04385571 -0.05884541 15.59251852 -0.05565872 18.14111328 -0.04296875 C22.04611336 -0.02910398 25.94871803 -0.06317115 29.85351562 -0.10131836 C32.32877663 -0.10226952 34.80404064 -0.1004109 37.27929688 -0.09545898 C38.44916138 -0.10871719 39.61902588 -0.1219754 40.82434082 -0.13563538 C48.87915507 -0.04284262 48.87915507 -0.04284262 52.33203125 2.87744141 C53.91067868 6.29041943 53.71793908 7.98411116 52.56054688 11.53344727 C50.97987793 13.52646463 49.82967986 14.39888077 47.56054688 15.53344727 C45.92297861 15.6490015 44.28087852 15.70297306 42.6394043 15.72631836 C41.10221992 15.75041275 41.10221992 15.75041275 39.53398132 15.7749939 C34.84517022 15.81939169 30.15650136 15.86050635 25.4675293 15.88354492 C22.99314981 15.90011116 20.51881831 15.92740959 18.04467773 15.96557617 C14.48070398 16.02028577 10.91785251 16.0422107 7.35351562 16.05688477 C6.24815964 16.07955414 5.14280365 16.10222351 4.00395203 16.12557983 C-3.6585468 16.10446455 -3.6585468 16.10446455 -7.64135742 13.19213867 C-9.84329052 9.93632721 -10.17718362 8.38603985 -9.43945312 4.53344727 C-6.52994881 0.8429054 -4.65045138 0.03014907 0 0 Z " fill="#010101" transform="translate(394.439453125,368.466552734375)"/>
<path d="M0 0 C18.48 0 36.96 0 56 0 C56 5.28 56 10.56 56 16 C37.52 16 19.04 16 0 16 C0 10.72 0 5.44 0 0 Z " fill="#98DB7C" transform="translate(224,192)"/>
<path d="M0 0 C5.28294713 2.79099094 9.0860914 6.2582742 11 12 C11.58717652 17.98920055 10.30567074 22.09481116 7 27 C2.01690254 31.74001954 -2.43273957 32.52489894 -9.1328125 32.48046875 C-14.06751227 31.65353677 -16.90382064 28.76926183 -20 25 C-22.4820925 20.96659968 -22.54719093 16.63347155 -22 12 C-20.42763715 6.54297598 -18.30867354 3.98513028 -13.71875 0.9453125 C-9.08460378 -1.60346792 -5.00067117 -1.10460031 0 0 Z " fill="#716370" transform="translate(422,192)"/>
<path d="M0 0 C4.47870656 2.15937638 7.18198188 4.92952939 10 9 C11.35682449 13.07047347 11.52472254 16.74391717 11 21 C8.46759618 25.9710149 5.01138866 29.49430567 0 32 C-5.48320778 32.50071209 -10.39459862 32.68802916 -15.5 30.5 C-19.89951295 26.10048705 -22.18287465 21.64351115 -22.5 15.375 C-22.19801258 9.51644405 -19.23820535 6.42393616 -15.5 2.125 C-11.03694954 -1.39306784 -5.34974796 -0.79364393 0 0 Z " fill="#716370" transform="translate(422,272)"/>
<path d="M0 0 C10.89 0 21.78 0 33 0 C33 5.61 33 11.22 33 17 C22.11 17 11.22 17 0 17 C0 11.39 0 5.78 0 0 Z " fill="#4E3D4D" transform="translate(432,480)"/>
<path d="M0 0 C10.89 0 21.78 0 33 0 C33 5.61 33 11.22 33 17 C22.11 17 11.22 17 0 17 C0 11.39 0 5.78 0 0 Z " fill="#60515F" transform="translate(47,480)"/>
<path d="M0 0 C5.28 0 10.56 0 16 0 C16 5.61 16 11.22 16 17 C10.72 17 5.44 17 0 17 C0 11.39 0 5.78 0 0 Z " fill="#60515F" transform="translate(432,480)"/>
<path d="M0 0 C5.28 0 10.56 0 16 0 C16 5.61 16 11.22 16 17 C10.72 17 5.44 17 0 17 C0 11.39 0 5.78 0 0 Z " fill="#4D3C4C" transform="translate(64,480)"/>
</svg>
